<svg id="Layer_1" xmlns="http://www.w3.org/2000/svg" viewBox="0 0 321 345.8"><style>.st0{fill:#126CB2;} .st1{fill:#FDB719;} .st2{fill:#8EC640;} .st3{fill:#666B66;} .st4{fill:#A41D37;}</style><path class="st0" d="M168.3 17.9l.3.2.3.2.4.5.2.1.2-.1v-.3l.3-6.3-.1-.2h-.4l-.2.3-.2.4-.2.1-.2.2h-.3l-11.4-.5h-.3V12.2l.1-6.4v-.4l.2-.1h.3l17.4.5.3.1.3.2.2.3.1.2.2.3.2.1.1-.2.1-.2.3-6.2-.1-.3-.2-.1-.2.1-.3.3-.2.2-.1.2-.2.1h-.3l-24-.9-.1.1-.1.2.1.2.2.1.4.3.2.2v.1l-.9 27.7-.1.3v.2l-.4.2-.2.1h-.3l-.1.3.1.2.2.1h.3l24.2.9.3.1.1.1.2.1v.3l.3.3.2.1.2-.2.1-.2.1-6-.1-.4-.1-.2-.2.1-.2.3-.2.3-.1.2-.2.1h-.3l-17.9-.6h-.3l-.1-.2v-.2l.2-7.3.1-.2v-.1l.2-.1h.3zM145.2 31.6l.3-.1.1-.2-.1-.2-.2-.1h-.4l-.2-.2-.3-.1-.2-.3-.1-.2-3.8-27.1.1-.2.2-.3.2-.2.3-.2.4-.1.1-.3-.2-.2h-.3l-7.2 1-.2.1-.1.1V3.1l.3.1.3.1h.4l.2.1.1.1.1.2V4l3.8 27v.3l-.1.3-.2.2-.5.2-.3.1v.2l.1.3h.2zM124.3 7.4v-.3l-.2-.3h-.3l-.3.3-.2.1-.4.1h-1.5l-.6-.1-.6-.1h-1.5l-.3-.1h-.7l-.5.1H116l-.4.1-.4.1h-.4l-.4.1-.4.2h-.4l-.4.2h-.4l-.3.2-.5.1-.3.2-.4.1-.3.1-.5.1-.8.4-.8.4-.8.4-.7.5-.8.5-.8.5-.7.6-.6.6-.6.7-.6.6-.5.7-.4.8-.4.8-.3.7-.2.9-.1.9-.1.8.1.9.1.9.3 1 .1.3.1.2.1.3.1.2.1.2.2.3.1.2.1.2.1.2.2.3.1.2.2.2.2.2.1.1.2.3.2.2.2.1.2.2.2.2.2.1.6.5.7.2.7.3.7.1h1.6l.8-.1h.8l.8-.2.9-.2.9-.2.8-.2.8-.3.9-.3.8-.3.8-.3.7-.2.7-.3.7-.1.6-.2.4-.1.3-.1.5-.1.3-.1h.4l.3-.1h.8l.3.1h.4l.3.1.3.1.3.2.3.1.3.2.2.3.2.3.2.3.2.4v.4l.1.3v.7l-.1.3v.3l-.1.2-.1.2-.1.3-.2.2-.1.2-.1.2-.2.2-.2.3-.1.1-.3.2-.2.2-.1.2-.2.1-.3.2-.4.2-.4.3-.5.3-.5.3-.5.2-.4.3-.5.2-.5.2-.5.3-.5.1-.5.2-.6.2-.5.1-.5.2h-.6l-.5.2h-.5l-.6.1-.5.1h-1l-.3.1-.2-.1h-1l-.3-.1-.3-.1h-.2l-.3-.1-.2-.1-.3-.1-.3-.2-.2-.1-.3-.1-.1-.3-.1-.2-.3-.2v-.3l-.2-.2-.1-.2-.2-.2H108.1l-.1.1-.1.3-.4 6.8v.3l.1.2h.3l.2-.2.3-.3h1.5l.6.1.5.1.5.1h1.1l.6.1h1.1l1.2-.1 1.2-.2 1.2-.3 1.3-.3 1.3-.5 1.3-.4 1.3-.6 1.2-.6 1.3-.7 1.1-.8 1-.8 1-.9.9-.9.7-1.1.6-1 .5-1.2.3-1.2.1-1.2-.2-1.3-.3-1.4-.4-1.2-.5-1-.5-.9-.7-.8-.6-.6-.7-.5-.8-.5-.8-.2-.9-.2-.8-.1h-1.8l-1 .1-.9.2-1 .2-1 .2-1 .3-1 .3-.9.3-.9.3-.4.2-.3.1-.4.1-.5.2-.4.1-.4.2-.5.1-.5.2-.5.1-.5.2h-.5l-.4.1h-.9l-.5-.1h-.3l-.4-.3-.3-.2-.3-.3-.2-.3-.1-.2-.1-.3-.1-.2v-1.3l.1-.3.1-.2.1-.3.1-.2.1-.2.1-.3.2-.2.2-.2.1-.2.2-.2.2-.2.2-.2.4-.4.3-.3.4-.3.5-.3.5-.3.5-.2.5-.3.5-.2.5-.2.5-.2.6-.2.5-.1.6-.2.5-.1.5-.1.5-.1h.6l.5-.1h.5l.5-.1h.7l.2.1H120l.2.1h1l.3.1.3.1.2.1.3.1.2.1.2.1.1.1.1.1.1.2.1.3.2.2.2.1.3-.2v-.1zM211 14l-.1-.7-.1-.7-.3-.7-.3-.6-.4-.6-.4-.6-.4-.5-.6-.6-.5-.4-.8-.6-.6-.4-.7-.4-.7-.2-.8-.2-17.9-4.5h-.3l-.1.1v.3l.2.1.3.1.2.1.1.1v.2l-.1.4-6.6 26.7-.1.2-.1.1-.4.1-.4.1-.1.2v.4h.1l.1-.1 6.3 1.7.4.1.2-.1v-.3l-.4-.4-.2-.3-.1-.2.1-.4 2.6-10.6.1-.3.2-.1.4.1 6.2 1.6.4.1.1.1.1.3 4.1 12.4.1.4v.2l-.1.1-.3.1-.3.1-.1.2v.2l.1.1 7.7 1.9h.2l.1-.2v-.3l-.4-.3-.3-.1-.2-.3L202 25V24.7l.1-.1.2-.1.4-.1.4-.1 2.4-.4.4-.1.4-.1.3-.1.4-.1.4-.2.3-.2.3-.3.3-.2.3-.3.2-.3.3-.4.2-.3.2-.4.2-.3.1-.4.2-.4.1-.3.1-.4.1-.4.1-.3.2-.8.2-.8.1-.7v-1.5l.1-.6zm-5.3 1.6l-.1.6-.1.5-.3.5-.3.4-.4.4-.4.4-.5.2-.6.2-.6.1h-.7l-.7-.1-11.1-2.8-.2-.1-.1-.1v-.2l1.5-6.2.1-.4.1-.2.1-.1.3.1 11 2.8.7.2.6.4.5.4.4.4.4.5.2.5.1.6.1.5v.5zM244.7 30.5l-.1-.9-.2-.9-.4-.9-.4-.9-.5-.8-.6-.8-.7-.7-.9-.6-.9-.6-15.9-8.9-.4-.1-.3.1v.2l.2.3.1.2.1.3-.1.3-.1.3-13 23.9-.1.3-.2.1h-.2l-.4-.1h-.4l-.1.1-.1.2.1.1 6 3.4.3.1.2-.2.1-.2-.1-.2-.2-.1-.2-.2-.1-.2v-.2l.1-.3 5.2-9.4.2-.3.1-.1.3.1 5.9 3.3.3.2v.3l.8 13v.3l-.1.2-.1.1-.1.1-.3.1-.2.1-.1.1.1.1.1.1 6.5 3.7.3.1.2-.1.1-.2-.1-.3-.3-.4-.1-.7-.8-13.2.1-.1h.1l.4.1.3.1.3.1.4.1h.3l.4.1h.3l.4.1h1l.4-.1h.3l.1-.2.3-.1.3-.1.3-.1.4-.1.3-.1.3-.1.9-.6.8-.6.7-.7.6-.7.5-.9.5-.8.3-.9.3-.9.1-.9.1-.9v-1zm-5.2.7l-.1.4-.1.4-.1.4-.2.4-.2.4-.3.4-.3.3-.4.2-.4.2-.4.2-.4.1-.4.1-.4.1-.4-.1-.4-.1-.4-.1-.4-.1-10.4-5.8-.2-.1-.1-.2.2-.4 3-5.5.2-.3.1-.1.3.1 10.2 5.8.2.2.3.2.3.3.2.3.2.3.2.4.1.3.1.3.1.4.1.4v.2zM96.5 48.2l-.2-.1-.5.1h-.4l-.4-.1-25.7-14.5-.2-.1-.1-.1V33l.1-.3.1-.5-.1-.2h-.2l-.2.1-5.9 4.6-.1.1v.3l.2.1.4.1h.5l.3.1.1.1 8.1 28.3v.5l-.1.5-.2.4.1.2h.3l.3-.1 4.6-3.7.1-.1v-.2l-.2-.2h-.6l-.2-.1-.1-.1-.1-.2-.2-.3-1.6-6.2-.1-.3.2-.3 9.4-7.3.2-.1.2.1.4.1 5.5 3.2.2.1.1.1-.1.2-.1.3-.1.3.1.2.2.1.3-.1 5.3-4.3.1-.1.3-.2zm-17.2-2.3l-.3.3-5.8 4.5-.2.1h-.1l-.1-.1-.1-.2-2.9-10V40l.2.1 9.1 5.3.2.1.1.1-.1.3zM62.4 63.9h-.2l-.1.1v.2l.2.2.3.4.4.4.2.5.2.5v.6l.1.6v.6l-.1.7v.6l-.2.7-.2.6-.2.7-.2.6-.3.6-.2.6-.3.6-.4.5-.3.5-.3.3-.2.4-.8.8-.8.8-.7.6-.8.6-.8.6-.7.4-.8.4-.7.3-.7.2-.8.2-.8.1h-.7l-.8-.1-.8-.2-.9-.3-.8-.3-.8-.4-1-.5-.8-.6-1-.7-.3-.3-.4-.2-.3-.4-.3-.4-.2-.3-.3-.5-.2-.3-.5-.7-.3-.8-.3-.7-.2-.7-.1-.8-.1-.7v-.7l.1-.8.1-.7.1-.8.2-.7.3-.7.3-.7.4-.7.3-.6.4-.7.6-.6.5-.6.5-.6.5-.5.3-.2.2-.2.3-.3.3-.2.3-.3.4-.3.5-.3.3-.3.5-.2.5-.3.4-.2.4-.2.5-.2.4-.2.4-.1.5-.1h.6l.4.2.2.1.3.2.3-.1.2-.2v-.2l-2.5-6.2-.1-.3-.3-.1-.2.1-.1.6-.1.2-.1.1-.2.2-.2.2-.4.3-.4.2-.5.3-.6.3-.6.2-.5.3-.6.3-.5.3-.4.2-.4.3-.3.2-.7.5-.6.5-.5.5-.6.5-.6.5-.6.6-.5.6-.5.6-.5.6-.4.7-.4.6-.5.7-.3.8-.4.7-.3.7-.3.7-.2.7-.1.8-.2.8-.1.7-.2 2 .2 1.9.4 1.8.5 1.7.7 1.6.8 1.6 1.1 1.3 1.2 1.3 1.3 1.2 1.3.9 1.5.9 1.6.6 1.6.5 1.7.3 1.6.1 1.8-.2 1.7-.3 1.7-.6 1.7-.8 1.6-1.1.5-.4.5-.4.5-.5.5-.4.5-.5.5-.5.5-.5.4-.5.4-.5.5-.6.4-.5.4-.6.3-.6.4-.5.3-.7.3-.6.3-.6.2-.6.3-.6.1-.7.2-1.1.2-1.5.2-1.8.3-1.5v-.6l.3-.3v-.2l-.1-.2h-.3zM269.7 48.2l-.1-.1-.1-.1-.1-.1-.2-.1-.1-.1-.1-.1-.1-.1-4.3-4.6-.3-.1-.2.1-.2.2v.4l.1.4v.2l-.1.2-.3.1L237 55.7l-.5.1-.5-.1-.4-.1-.2.1v.2l.5.6 3.7 4 .1.1.2-.1.1-.1v-.8l.1-.1.2-.1 6.1-2.5.2-.1.2.1.3.2 8.3 8.4.1.2v.1l-.1.3-2.4 6.3-.1.1-.1.1H252l-.1.1-.1.1.1.2.1.1.1.2 4.5 4.3.3.2.2-.1.1-.1-.1-.4-.1-.4v-.4l11.1-27.5.1-.3.2-.1.4.1H269.4l.2-.1.1-.1v-.2zm-7.9 2l-.1.2-3.9 9.6-.2.3-.2-.1-4.2-4-.6-.6-.5-.6-.3-.3-.1-.1.1-.1.2-.1 9.3-4 .4-.1h.1v-.1zM303.1 99.6l.5.1.5.2.4.2h.2l.2-.2v-.3l-2.9-5.5-.2-.2-.3-.1-.2.2-.1.2-.1.3-.1.3-.3.2h-.3l-20.9 2.3-.4.1v-.1l.1-.2 13.7-16.7.2-.3h.2l.3.1.5.2.2-.1.2-.2v-.2l-3.3-6.2-.3-.3h-.2l-.2.2v.8l-.1.4-.2.4L272 97.1l-.2.2-.3.3-.3.1h-.3l-.3-.2-.3.1-.2.2v.3l3.1 5.9.3.2h.2l.3-.2V103.4l.1-.3.2-.1.5-.1zM48 100l.2.2.2.1.1.1v.3l-.2.3-.1.2v.5l.3.1.2-.1.1-.1 3.5-6.4.1-.3-.1-.1-.1-.1H52l-.2.1-.2.2-.2.2-.3.2-.3-.1-.3-.1-23.2-13-.3-.1-.1-.2-.2-.2-.1-.3v-.2l.1-.3v-.4l-.1-.2-.2-.1-.2.2-3.5 6.3-.2.4.2.2.2.1.3-.3.3-.3.2-.1h.5zM11.7 116l-.3.1-.2-.1-.2-.2v-.7l-.2-.2-.3.1-.2.3-2.4 6.7v.3l.1.1h.2l.3-.2.4-.2h.8l25.3 9.4.3.1.2.2v.1l-.1.3v.3l.2.2h.3l.2-.3 2-5.5v-.3l-.2-.1-.2-.1-.3.3-.2.3h-.4L18 120l-.3-.1.1-.2.4-.1 24.4-8.9.1-.1.1.1.2.1.1.4.2.2.1.1.2-.1.3-.3 1.9-5.5.1-.3v-.3h-.5l-.2.2-.2.1-.1.1-.3.1-.1.1h-.1l-25.3-9.3-.3-.2-.3-.2-.1-.3-.1-.4-.1-.2-.2-.2-.2.1-.2.4-1.9 5.2-.1.4.1.3h.2l.3-.2.4-.3.2-.1.2.1 17.3 6.3.5.2.1.1v.1l-.3.2zM280.8 116.9l-.3.1h-.2l-.3-.1-.1-.1-.2-.2-.1-.2-.2-.3h-.3l-.2.2v.3l2.3 7 .1.2.2.1.2-.1.1-.2v-.3l-.1-.5v-.3l.3-.2.3-.2 25.5-8.4.3-.1.2.1.2.1.2.5.3.1.2.2.1.1.2-.1.1-.1-.1-.3-2.2-6.9-.1-.2-.2-.2-.1-.1-.2.2V107.9l-.1.2-.2.3-.3.2zM314.9 146.4h.2l.1-.2v-.1l-.1-.3v-.3l-.1-.3v-1.1l.1-.2v-.6l.1-.3.1-.4.1-.3v-.2l.1-.3.1-.2v-.3l.1-.4v-1.1l.1-.4V136.4l-.1-.4v-.7l-.1-.4v-.4l-.1-.4-.1-.3-.2-1-.3-.9-.3-.9-.3-1-.4-1-.5-.8-.4-1-.5-.8-.6-.8-.6-.8-.7-.7-.6-.6-.8-.5-.8-.5-.9-.4-.9-.3-1-.1h-1l-1 .1-1.1.2-.4.1-.3.1-.3.1-.3.1-.3.1-.4.2-.3.1-.2.2-.3.2-.3.2-.2.2-.6.6-.5.6-.4.8-.3.8-.3.7-.2.8-.1.8v1.8l.1.8v.9l.1.9.1.9.3.9.1.8.2.9.2.8.2.8.1.8.2.8v.4l.1.3v.4l.1.4v.8l-.1.3v.4l-.1.3v.4l-.1.4-.1.2-.3.3-.1.3-.2.3-.3.2-.3.2-.4.2-.3.1-.4.1h-.8l-.3-.1h-.3l-.2-.2-.2-.1-.3-.2-.3-.1-.2-.2-.1-.2-.2-.2-.2-.2-.2-.2-.2-.2-.1-.3-.2-.2-.1-.2-.2-.3-.1-.2-.2-.4-.3-.6-.2-.5-.3-.5-.1-.6-.2-.5-.2-.6-.2-.5-.1-.6-.1-.6-.1-.6-.1-.5-.1-.6-.1-.6v-2.3l.1-.6v-.6l.1-.2.1-.2v-.5l.1-.3.1-.2v-.2l.1-.3.1-.1.1-.3.1-.2.2-.2.1-.2.1-.2.2-.2.2-.1.2-.1.2-.1.2-.2h.3l.3-.1.2-.2.1-.1V127l-.1-.1-.2-.1-6.8-1.3h-.2l-.2.1v.2l.2.3v1.5l-.1.3-.1.3-.1.4-.2.3v.3l-.1.3v.3l-.1.4-.1.3v1l-.1.3v2.1l.1.4v1.6l.2.7.1.7v.7l.2.7.1.7.2.7.3.8.2.7.2.7.3.8.3.7.3.6.3.8.3.6.4.6.4.6.4.6.5.6.4.5.5.4.6.5.8.5.7.4.7.3.8.2.8.2.8.1h1.6l.8-.1.9-.1.7-.3.8-.3.6-.4.8-.4.5-.5.6-.6.5-.6.5-.8.3-.8.3-.7.1-.7.2-.7.1-.7v-2.2l-.2-.7-.1-.7-.1-.8-.1-.7-.2-.7-.2-.7-.1-.7-.3-.8-.1-.7-.1-.7-.2-.7-.1-.7v-.8l-.1-.2v-.3l-.1-.2v-.6l-.1-.3V129.5l.1-.3v-.2l.1-.3.1-.3.1-.2.2-.3.1-.1.2-.2.2-.2.3-.1.3-.1h.3l.3-.1h.8l.2.1h.2l.2.1.2.1.3.1.2.2.3.1.1.2.2.2.2.2.2.1.1.2.2.3.2.2.1.1.3.5.3.4.2.5.2.5.2.5.3.5.1.5.2.5.1.6.1.5.1.6.1.5.1.5V140.5l-.1.3v.3l-.1.3-.1.3v.2l-.1.3-.1.3v.3l-.2.2-.1.3-.1.2-.2.2-.1.2-.1.2h-.3l-.2.2-.2.1-.1.2-.2.2.1.2.2.2zM32.5 142.6l.3.2.3.2v.7l.1.4.2.2.2-.1.2-.3 1.7-7.2-.1-.2-.2-.1H35l-.2.3-.2.5-.2.1-.3.1h-.3l-26.2-6.1-.3-.1-.2-.2-.1-.2-.1-.3v-.3l-.1-.4-.2-.1H6.3l-1.8 7.7v.1l.3.1.2-.1.3-.3.2-.3.2-.2.3-.1.3-.1zM29.6 170.2l.2.2.2.2.2.5h.5l.1-.2 1.7-23.4v-.3l.2-.3.3-.2.3-.3.1-.2-.1-.1-.3-.1-6-.5-.2.1-.2.1v.2l.3.2.2.3.3.3.1.5-1.2 17v.2l-.2.1h-.2l-23.1-1.6-.3-.1-.3-.2-.1-.2-.2-.3v-.3l-.3-.1-.2.1-.1.3-.5 6.5.1.3.1.2h.3l.3-.4.3-.3.3-.2zM314.1 169.1h.3l.1.2.5 8.9v.3l-.1.2-.2.1-.3.3-.3.3V179.7l.3.1 6.2-.4.2-.1.2-.2-.1-.2-.3-.1-.3-.2-.2-.2-.1-.2-.1-.4-1.2-23.6v-.4l.3-.4.3-.2.2-.2v-.2l-.1-.2h-.1l-6.3.3-.2.1-.2.3.2.2.2.1.3.1.3.2.1.3.1.5.3 8.5v.4l-.3.1-22.9 1.2-.2-.1-.3-.1-.2-.3-.2-.2-.1-.3h-.5l-.1.3.4 6.9.1.3h.2l.2-.1.3-.4v-.3l.2-.2.2-.1.3-.1zM19.9 179.4l-.2.2v.3h1.6l.4.1.5.1.3.3.5.3.3.4.4.4.4.4.3.5.4.5.3.5.2.5.3.6.2.5.2.5.2.5.2.4.1.4.1.4.2.9.1 1 .1 1v.8l-.1 1v.8l-.2.9-.2.9-.2.8-.4.8-.4.7-.4.7-.5.6-.6.7-.7.6-.8.5-.8.4-.8.4-.9.3-1 .3-1.1.2-1 .1-1.1.1-.9-.1-.9-.1-.8-.3-.9-.2-.7-.4-.7-.4-.7-.5-.6-.5-.6-.7-.5-.7-.5-.7-.4-.8-.4-.9-.4-.9-.2-.9-.3-1-.2-1v-.4l-.1-.3v-1l.1-.5v-1.2l.1-.6.1-.7.2-.6.1-.6.2-.6.1-.6.2-.5.2-.4.3-.5.3-.4.3-.3.3-.2h.4l.3-.3.2-.2v-.3l-.3-.1-6.5-2.7h-.1l-.1.2.1.2.2.4v1.3l-.1.4-.1.4-.1.4-.2.5v.5l-.2.5-.1.4-.1.5-.1.5-.2.4-.1.4-.1.4-.1.3v.6l-.1.7-.1.8V190.5l.1.7.1.8v.7l.2.7.1.7.2.7.2.8.2.6.2.7.3.7.3.7.3.6.4.6.4.7.4.5 1.2 1.5 1.3 1.3 1.5 1 1.5.8 1.6.7 1.6.5 1.7.3 1.7.1h1.7l1.7-.3 1.6-.4 1.6-.6 1.5-.8 1.5-.9 1.3-1.1 1.1-1.2 1.1-1.4.9-1.6.6-1.7.5-1.9.2-.6v-.7l.1-.7.1-.8v-2.8l-.1-.8-.1-.7-.1-.7-.2-.7-.1-.7-.1-.8-.3-.6-.2-.7-.3-.7-.3-.6-.2-.7-.4-.5-.2-.5-.3-.4-.3-.4-.2-.4-.4-.4-.3-.4-.2-.4-.3-.3-.4-.4-.3-.2-.3-.4-.3-.2-.3-.4-.2-.4-.2-.3-.1-.5v-.1l-.2.1-.3.2zM318.2 192.6l-.3.1-.3.3-.3.2-.1.1-.2-.1-.3-.1-24.8-13.9-.4-.2-.3-.4-.3-.4-.1-.3-.2-.1-.2.1-.1.3-.7 6 .1.1.1.1h.2l.4-.2.4-.2.2-.1.1.1 5.7 3.3.3.2v.3l-1.4 11.9v.2l-.1.1-.3.1-6.2 1.7-.4.1h-.2l-.1-.2-.1-.3-.1-.1-.3-.1-.2.1-.1.4-.8 6.5v.3l.1.2.3-.1.2-.2.3-.4.4-.3 28.2-8.1.2-.1.2.1.1.2.1.4.1.2.2.1.3-.1.1-.2.9-7.4v-.3l-.3.1zm-7.1 3l-.3.1-9.8 2.7-.3.1h-.1l-.1-.1v-.3l.9-7.7.1-.2h.1l.2.1 8.9 5 .4.1v.2z"/><g><path class="st0" d="M159.2 124.3l.6-.1.7-.1h.6l.6-.2.7-.1.6-.1.7-.1.6-.2.7-.1.6-.2.7-.2.6-.2.6-.2.7-.2.6-.3.6-.2.6-.3.5-.3.6-.3.7-.4.5-.3.7-.4.6-.3.5-.4.5-.4.6-.3.6-.5.6-.3.5-.5.5-.3.5-.4.6-.5.5-.5.5-.4.5-.4.5-.5.5-.6.5-.5.6-.5.3-.3.3-.5.4-.4.3-.4.3-.4.3-.5.4-.4.2-.4.3-.5.3-.5.3-.4.3-.5.2-.5.3-.5.2-.5.3-.5.2-.4.2-.5.3-.5.2-.4.8-2.1.6-2.1.6-2.1.4-2.1.3-2.1.1-2.1v-4.1l-.2-2.1-.4-2-.4-2.1-.6-1.9-.7-1.9-.8-2-1-1.9-1-1.8-1.2-1.8-1.2-1.8-1.4-1.7-1.5-1.6-.4-.5-.5-.6-.6-.4-.5-.4-.6-.4-.5-.5-.6-.4-.5-.4-.7-.4-.6-.4-.5-.3-.6-.4-.6-.3-.6-.3-.7-.4-.6-.3-.6-.3-.7-.3-.6-.2-.7-.3-.5-.2-.7-.3-.6-.2-.7-.2-.6-.2-.7-.2-.7-.2-.6-.1-.8-.2-.6-.1-.7-.1-.7-.1-.7-.1-.7-.1h-1.4l-.7-.1H155.7l-.7.1h-1.6l-.8.1-.8.2h-.8l-.8.2-.8.1-.8.2-.7.1-.8.2-.8.2-.8.2-.7.3-.8.3-.7.2-.8.3-.7.3-.7.4-.7.3-.7.4-1 .6-.9.6-1 .7-.9.6-.9.7-.9.7-.9.7-.8.8-.8.7-.8.8-.8.9-.7.8-.7.9-.8.9-.6.9-.6.9-.6 1-.5 1-.6 1-.4 1.1-1.2 2.8-.9 2.9-.5 2.8-.4 2.9-.1 2.9v2.9l.4 2.8.5 2.7.8 2.8.9 2.6 1.2 2.6 1.3 2.5 1.6 2.3 1.8 2.2 2 2.1 2.1 1.9 2.3 1.8 2.5 1.6 2.6 1.4 2.9 1.1.7.3.6.2.7.3.8.2.6.1.7.2.7.1.8.1.7.2.7.1h.7l.7.1.8.1h5zM225.2 146.6l1-.1.8-.1.9-.2.9-.2.9-.3.8-.3.9-.2.9-.3.8-.4.8-.4.8-.4.8-.4.8-.5.8-.5.8-.5.7-.5.7-.6.7-.6.7-.6 1.3-1.3 1.2-1.3 1.2-1.4 1-1.4.9-1.5.8-1.5.7-1.5.7-1.6.6-1.6.4-1.6.3-1.7.3-1.7.1-1.7.1-1.8-.1-1.7-.2-1.7-.2-1.7-.5-1.8-.4-1.8-.6-1.7-.4-1.2-.5-1-.6-1.1-.6-1-.6-1-.7-1-.7-1-.8-.8-.8-.9-.8-.9-.9-.8-.9-.7-1-.8-.9-.7-1-.6-1-.7-1-.6-1.1-.5-1.1-.5-1.1-.5-.5-.3-.5-.2-.6-.2-.5-.1-.6-.2-.6-.1-.5-.2-.6-.1-.6-.1-.6-.1-.6-.1-.6-.1H223.2l-.6-.1H220.9l-.6.1-2.7.2-2.6.5-2.5.8-2.5 1-2.3 1.2-2.1 1.4-2.1 1.6-1.8 1.7-1.8 1.9-1.5 1.9-1.3 2.2-1.2 2.2-1 2.4-.7 2.4-.6 2.5-.3 2.6-.1 2.5.1 2.7.5 2.7.7 2.6.3 1.3.5 1.2.5 1.1.6 1.2.6 1.1.6 1 .7 1.1.7.9.8 1 .8.9.8.8.9.9.9.8.9.8 1 .8 1 .7 1.1.6 1.1.7 1.2.6 1.1.6.6.4.6.3.7.2.7.2.6.2.7.1.7.3.7.1.7.1.7.1.7.1.7.1h5.6zM91.1 178.1l3.2-.5 3.1-.9 2.8-1.3 2.7-1.6 2.4-1.9 2.2-2 1.9-2.4 1.6-2.5 1.5-2.8 1-2.8.8-2.9.4-3.1.1-3.1-.2-3-.6-3-1-3-1.3-2.9-1.8-2.7-2.1-2.7-.4-.4-.4-.3-.4-.4-.3-.4-.4-.3-.4-.4-.4-.3-.4-.4-.4-.3-.4-.3-.4-.3-.5-.4-.5-.3-.4-.3-.4-.3-.5-.2-.5-.3-.4-.2-.5-.2-.5-.2-.5-.2-.5-.2-.5-.2-.5-.2-.5-.1-.5-.3-.5-.1-.5-.1-.5-.2-.5-.1-.6-.2-.5-.1-.5-.1-.5-.1-.5-.1h-.5l-.6-.1-.5-.1h-3.2l-2.1.2-2 .4-1.9.4-2 .6-1.9.8-1.8.9-1.6.9-1.7 1.2-1.5 1.2-1.4 1.4-1.4 1.4-1.2 1.5-1.2 1.7-1 1.7-.8 1.8-.8 1.9-.6 1.9-.4 2-.4 2.1-.1 1v3.3l.1.9.1.9.1.8.2.8.1.9.2.8.2.8.3.8.2.8.4.9.3.8.3.8.3.8.5.7.3.8.4.7.4.7.5.6.4.6.5.6.5.7.5.5.6.6.6.6.5.5.6.5.7.5.6.5.6.5.6.5.7.4.7.4.6.4.7.4.7.4.5.3.5.2.6.3.6.2.5.2.5.2.6.2.6.2.6.1.6.2.6.1.6.1h.6l.6.2.6.1h1.1l.7.1h.6l.5.1z"/><path class="st0" d="M256.4 160.2V159l-.1-.4V158l-.1-.3v-.3l-.1-.4-.1-.3-.1-.3-.1-.3-.1-.3-.1-.3-.1-.3-.2-.3-.2-.3-.2-.3-.3-.4-.3-.3-8.9-8.6-.3-.1H244.8l-.1-.4-.1-.3-.3-.1-.4-.2-.5-.2-.3-.1H242.8l-.1.1-.2.2-.4.7-.4.8-.4.7-.4.7-.3.4-.2.3-.3.4-.3.4-.3.3-.3.4-.3.3-.3.4-.4.3-.3.3-.4.4-.3.3-.4.3-.4.2-.4.3-.4.2-.4.3-.4.2-.4.2-.4.1-1.3.6-1.4.6-1.3.4-1.4.4-1.4.4-1.4.3-1.4.2-1.4.1-1.4.1-1.4-.1-1.4-.1-1.4-.2-1.4-.3-1.3-.4-1.4-.4-1.3-.6-1.2-.6-1.2-.8-1.2-.9-1.2-.9-.4-.4-.4-.3-.4-.4-.4-.4-.4-.4-.4-.4-.4-.4-.4-.4-1.8-2.6-.1-.2h-.1l-.2.1-4 2.2-.4.3-.7.5-2.4 2-.3.2h-.1l-.1-.2v-15.1l-.1-.3-.1-.4-.1-.4-.1-.4-.2-.4-.2-.4v-.4l-.3-.4-.3-.4-.4-.5-.4-.4-.4-.5-.3-.4-.4-.4-.4-.4-.3-.4-.4-.4-.3-.3-.2-.2-.3-.2-8.8-7.2-.2-.1h-.2l-.3.3-3.3 3.4-.3.3-.4.3-.3.3-.4.3-.4.3-.4.3-.4.3-.4.2-.4.3-.4.3-.4.2-.4.2-.4.2-.4.3-.4.2-.4.2-.4.1-.4.2-.4.1-.4.2-1.3.5-1.3.5-1.3.4-1.3.4-1.3.4-1.2.2-1.3.1-1.3.1-1.2.1h-1.3l-1.2-.1-1.3-.1-1.3-.1-1.2-.2-1.3-.3-1.3-.4-1.2-.4-1.4-.4-1.3-.5-1.3-.6-.4-.1-.4-.2-.4-.1-.4-.1-.4-.2-.4-.2-.4-.1-.4-.2-.4-.2-.4-.2-.4-.1-.4-.3-.4-.2-.4-.2-.4-.2-.4-.2-.4-.3-.8-.6-.8-.6-.7-.6-.8-.6-.8-.6-.4-.4-.4-.4-.3-.4-.3-.4-.4-.4-.2-.2h-.1l-.2.1-.5.5-.5.4-.5.5-.5.4-.6.4-.5.4-.5.5-.5.4-.5.5-.5.4-.5.5-.4.4-.5.5-.5.4-.5.5-.4.5-.5.5-.4.5-.5.5-.4.5-.1.1-.1.1-.2.2-.1.1-.1.2-.2.2-.1.2-.2.2-.1.2-.1.2-.1.2-.1.2-.1.3-.1.2-.1.2-.1.2-.1.3-.1.2v.4l-.1 51.1v.2h-.1l-.3-.3-5.3-5.6-.7-.6-1.1-.9-.8-.6-.3-.2-.2-.1h-.1l-.1.1-.2.1-1.2 1.2-1.2 1.1-1.2 1.1-1.3.9-1.2.9-1.3.8-1.3.8-1.3.6-1.3.6-1.4.4-1.4.4-1.4.3-1.4.1-1.4.1-1.4-.1-1.5-.2-1.5-.4-1.6-.4-1.7-.6-1.7-.7-.3-.2-.4-.1-.3-.1-.4-.2-.4-.1-.3-.1-.4-.2-.4-.1-.3-.2-.4-.1-.3-.2-.4-.2-.3-.2-.3-.3-.3-.2-.3-.2-3.8-3.5-.3-.3-.3-.2-.3-.2-.2-.2-.1-.1-.2-.1-.1-.1-.1-.1H69.4l-.1.1-.1.1-.1.1-8.4 10.2-.2.3-.2.3-.2.3-.2.4-.3.4-.1.4-.2.4-.1.4-.1.3.1 46.8v.2l.1.1h.2l4.8-.1H65.6l.8.1.9.1.9.1 1 .1 1 .2 1.1.1 1.1.2 1.2.1 1.1.2 1.1.2 1.1.2 1 .2 1 .2.9.2.9.2.8.2.7.1.6.1 2.4.7 2.4.6 2.3.6 2.2.7 2.2.7 2.2.7 2.2.8 2.1.7 2.2.9 2 .8 2.1.9 2.1.9 2.1.9 2 1 2.1 1 2.1 1.1 2.1 1.1 2.1 1.2 2.1 1.2 2.2 1.3.5.3.4.3.5.3.4.3.5.3.5.3.4.3.5.3.4.3.5.3.4.3.5.4.4.3.5.3.4.4.4.3.5.3.4.4.4.4.4.3 3.2 2.6.4.2.2.1h.1l.1-.1 4.9-4.2.3-.3.1-.4v-52.5l.2-.3 3.5-4.3.1-.2h.2l.3.1 4.3 2.4.4.2.4.2.4.1.5.1.4.2.4.1.5.1.4.1.5.1.4.1.4.1.9.2.9.2.9.1.9.2.9.1.9.1.9.1.9.1h3.6l.9-.1.9-.1.8-.1.8-.1.9-.2.9-.2.9-.3.9-.3.6-.3.6-.2.6-.2.6-.3.6-.2.6-.3.6-.4 4.3-2.6.4-.2.3-.1h.1l.1.1.1.1 2.4 3.5.2.3v.4l.1 26.5v.1l.1.1v.1h.1l.1.1.1-.1h.2l.2-.1.4-.1.3-.1.4-.2 22-8.8 1.2-.5 1.3-.4 1.2-.5 1.4-.4 1.3-.4 1.4-.4 1.4-.4 1.4-.4 1.4-.4 1.4-.4 1.4-.4 1.4-.4 1.4-.4 1.4-.4 1.4-.3 1.4-.3 1.4-.3 1.4-.3 1.3-.3 1.3-.2.6-.1.6-.1.6-.1.6-.1.6-.1.6-.1.6-.1.6-.1.6-.1.6-.1.6-.1.6-.1.6-.1.6-.1h.6l.6-.1.6-.1.6-.1h6.7l.1-.1.1-.3.1-54.6zm-67 15.7l-.4 2.7-.6 2.6-.8 2.5-1.2 2.4-1.4 2.4-1.7 2.2-1.9 1.9-2.2 1.8-2.4 1.5-2.7 1.3-.4.1-.4.1-.4.1-.4.1-.4.1-.4.1-.4.1-.4.1-.4.1-.4.1-.4.1-.4.1-.4.1-.4.1-.4.1h-.4l-.4.1h-.7l-.4.1h-.6l-.6-.1h-1.2l-.5-.1-.6-.1-.6-.1-.6-.1-.6-.1-.5-.1-.6-.1-.5-.1-.6-.1-.6-.1-.5-.1-.5-.2-.6-.2-.5-.2-.5-.2-.6-.2-2.7-1.5-2.4-1.7-2.1-1.9-1.8-2.2-1.6-2.3-1.2-2.4-.9-2.5-.7-2.6-.4-2.7-.1-2.7.1-2.7.5-2.6.8-2.6 1.1-2.5 1.4-2.4 1.6-2.2 1.9-2 2.2-1.9 2.4-1.7 2.8-1.4.4-.2.4-.1.4-.1.4-.2.4-.1.5-.1.4-.1.5-.1.4-.1.5-.1.4-.1.5-.1.4-.1h.5l.5-.1.4-.1h.9l.5-.1.4.1h1.2l.6.1.6.1.6.1.6.1.6.1.6.1.6.1.6.1.5.2.6.1.6.1.5.2.6.1.6.2.5.3.6.2.5.3.6.2 2.5 1.6 2.3 1.8 2 2 1.7 2.2 1.4 2.3 1.1 2.4.9 2.6.5 2.6.3 2.7v2.5z"/><path class="st1" d="M318.2 228.9h.3l.2-.1.1-.3.8-5.5.1-.4-.2-.1-.2-.1-9.4-1.2-6.3-.8-6.5-.6-6.4-.4-6.6-.2-6.5-.1-6.7.1-6.6.3-6.6.5-6.6.7-6.6.8-6.5 1.1-6.5 1.3-6.5 1.4-6.3 1.6-6.4 1.9-6.2 2-6.2 2.3-5.9 2.4-5.9 2.7-5.8 2.8-1.3.7-1.4.7-1.3.7-1.3.8-1.3.7-1.4.8-1.3.8-1.3.8-1.3.8-1.3.7-1.3.9-1.3.9-1.4.8-1.3.8-1.2 1-1.3.8-1.2.9-1.3.9-1.1.9-1.2.9-1 .9-1.1.9-1 .8-1 .8-1 .9-1.1.8-1 .8-1 .8-1.4 1.2-1.5 1.2-1.5 1.3-1.6 1.4-1.5 1.6-1.5 1.5-1.6 1.6-1.6 1.7-1.6 1.6-1.6 1.8-1.5 1.8-1.6 1.7-1.4 1.8-1.5 1.7-1.3 1.8-1.3 1.7-1.3 1.7-1.2 1.7-1.1 1.5-.9 1.6-2.3 3.6-.1.2v.2l.2.1 5 2.8.3.1h.1l.2-.2 2.2-3.6.5-.8.6-.8.6-.8.6-.8.5-.8.6-.7.7-.8.5-.8 1.2-1.6 1.2-1.5 1.2-1.5 1.2-1.4 1.2-1.5 1.2-1.3 1.3-1.4 1.2-1.3 1.3-1.4 1.2-1.2 1.3-1.3 1.3-1.2 1.3-1.3 1.4-1.2 1.3-1.2 1.4-1.3 1.4-1.3 1.4-1.2 1.5-1.3 1.5-1.3.8-.6.8-.8.9-.6.8-.7.9-.7.9-.7.8-.6.9-.7.9-.6.9-.7.9-.6.9-.7.9-.6 1-.6.8-.6 1-.6.9-.6.9-.6.9-.5.9-.6.8-.3.7-.4.8-.5.7-.4.7-.5.7-.4.8-.5.7-.4.8-.4.7-.5.7-.4.8-.4.7-.5.8-.3 1-.5 1-.5 1-.5 1-.5 1.1-.6 1-.5 1-.4 1.1-.5 1-.4 1-.5 1.1-.5 1-.4 1.1-.4 1-.5 1.1-.4 1-.4 1.1-.5 1.1-.4 1-.4 1-.4 1.5-.6 1.4-.6 1.5-.5 1.5-.5 1.4-.5 1.5-.5 1.5-.4 1.5-.5 1.5-.4 1.5-.4 1.5-.4 1.5-.4 1.5-.3 1.6-.4 1.5-.3 1.5-.4 1.5-.3 1.5-.4 1.5-.3 1.5-.4 3.6-.7 3.6-.6 3.8-.6 3.8-.6 3.9-.4 3.9-.4 4.1-.3 4-.2 4.1-.2 4-.1h8.2l4.1.1 4 .1 4 .3 3.9.2 3.8.4 3.9.4 3.7.4 3.5.5z"/><path class="st2" d="M130 302.6v.3l.2.2h.3l189.8.1h.4l.2-.1v-.3l-.1-68.8v-.3l-.1-.1-.3-.1-1.9-.4-1.6-.3-1.5-.3-1.5-.2-1.6-.2-1.5-.3-1.6-.2-1.5-.2-1.6-.1-1.6-.2h-1.6l-1.5-.2-1.6-.1-1.6-.1-1.6-.1-1.5-.1H292l-1.6-.1-1.6-.1h-4.5l-.8-.1h-5.1l-.7.1h-.8l-2 .1-2.2.1-2 .1-2.1.1-2.1.1-2.1.1-2.1.1-.9.1h-1l-1 .1-1 .1-.9.1-1 .1-1 .1-1 .2-.9.1-1 .1-1 .1-1 .2-.9.1-.9.2-1 .1-1 .2-1 .1-.9.1-1 .2-1 .1-.6.1-.7.1-.7.1-.6.2-.8.1-.6.1-.6.1-.8.2-.6.1-.7.2-.7.1-.6.1-.7.2-.7.2-.6.1-.7.2-.6.1-.8.2-.6.1-.7.2-3.8.9-4 1-3.9 1.2-3.9 1.2-3.9 1.3-3.9 1.4-3.8 1.5-3.9 1.7-3.9 1.6-3.8 1.8-3.6 2-3.7 1.9-3.7 2.1-3.5 2.2-3.5 2.2-3.3 2.3-3.3 2.5-3.2 2.4-3.1 2.6-3.1 2.7-.7.6-.8.7-.8.8-.7.7-.8.6-.7.7-.8.8-.7.7-.7.6-.7.8-.8.7-.8.7-.7.8-.7.7-.7.7-.7.8-.7.7-.7.8-.6.8-.8.8-.6.7-.7.8-.8.7-.6.8-9.4 12.2z"/><path class="st1" d="M131.3 274l.2.2.2.1.2-.2.2-.2 3.5-4.2.1-.1v-.2l.1-.1v-.1l-.1-.1-.1-.2-.2-.1-.1-.2-.2-.1-.2-.2-.3-.2-.4-.2-9.7-6.5-.9-.5-.9-.4-.9-.5-1.1-.6-1-.6-1-.5-1-.5-1.1-.5-1-.6-1-.5-1.1-.5-1-.5-1-.5-1.1-.5-1-.4-1.1-.5-1.1-.4-1.1-.5-1-.4-1.1-.4-1.1-.5-1.1-.4-1.1-.4-3.9-1.4-4.1-1.3-4.1-1.2-4.1-1.1-4.1-.9-4.1-.8-4.2-.7-4.2-.7-4.2-.4-4.2-.4-4.2-.2-4.2-.1h-4.3l-4.2.1-4.2.3-4.3.4-4.1.5-4.3.5-4.2.8-4.1.9-.7.1-.7.2-.8.2-.7.1-.7.2-.8.2-.7.1-.8.2-.7.2-.7.1-.7.3-.8.1-.7.2-.8.2-.7.3-.7.2-.7.2-.7.2-.8.2-.6.3-1.6.5-.2.2-.1.1.1.2 1.8 5.3.1.3h.4l12.4-3.5.8-.2.9-.2.9-.1.8-.2.8-.2.9-.1.8-.2.8-.1 1.6-.4 1.6-.2 1.6-.3 1.6-.3 1.6-.2 1.5-.3 1.7-.2 1.6-.1 1.6-.2 1.6-.1 1.6-.1h1.7l1.5-.1 1.7-.1h3.2l1.6-.1 1.7.1h3.2l.7.1h.8l.8.1h1.5l.7.1.8.1h.7l.8.1.7.1.8.1h.7l.8.1.7.1.8.1.7.1.8.1.8.1.8.1.7.1h.7l.7.2h.7l.8.2.7.1.7.1.7.1.7.2.7.1.7.2.7.2.7.1.8.2.7.2.6.1.7.2.8.1.7.2.7.2.7.1.9.2.9.2 1 .3 1 .3 1.2.3 1.1.3 1.1.3 1.3.4 1.1.4 1.2.4 1.2.4 1.1.4 1.2.4 1.1.4 1.1.4 1.1.5 1 .4.9.4.9.4.8.4.6.3.6.3.7.2.5.3.7.3.6.2.6.3.7.3.5.3.7.3.6.3.9.5.9.5.8.4 1 .5.8.5 1 .4.8.5 1 .5.8.5 1 .6.8.5.9.5.9.5.9.5.9.5.7.6.9.6.9.6.8.6.8.6z"/><path class="st2" d="M0 301.2l.1.1h.3l110.8.1h.2l.2-.1.1-.3 4.7-7.7.4-.6 1.1-1.6 10.3-14.2.1-.3v-.1l-.2-.2-3.7-2.3-1.1-.7-1.1-.7-1.2-.7-1.1-.6-1.2-.6-1.2-.6-1.1-.6-1.3-.6-1.2-.6-1.2-.5-1.2-.5-1.2-.6-1.2-.5-1.2-.5-1.3-.5-1.2-.5-1.3-.5-1.2-.5-1.2-.5-1.3-.4-4.6-1.7-4.8-1.5-4.7-1.3-4.9-1.2-4.8-1-4.9-.9-4.9-.6-4.9-.6-5-.3-4.9-.3h-5l-4.9.1-5 .3-5 .4-4.9.6-4.9.8-4.9.9-4.8 1.1-4.8 1.2-4.8 1.4-2.6.9-.3.1-.1.4V301z"/><path class="st1" d="M0 256.1l9.8-3-.1-6.7-.2.1-.7.2-.7.2-.8.1-.7.3-.8.1-.7.3-.7.1-.8.2-.7.3-.7.2-.7.2-.7.3-.8.2z"/><path class="st2" d="M47.3 296.1H0v6.9l.1.1H10.7l99.4.1h.2l.2-.1.2-.3 4-6.7z"/><path class="st1" d="M122.9 303.2l.4-.7.5-.8.4-.8.5-.8.4-.6-7.6.1-2.2 3.5v.1zM320.9 222.6l-5.1-.6v6.5l5.1.8z"/></g><g><path class="st2" d="M240.9 250.9h.1v.1h.1V250.2v.1h-.1v.1l-1.4-.1v-.8h2.1l.1.1v.1l.1-.1v-.7h-.1v.1h-.1l-2.7-.1h-.1.1v.1l-.1 3.2v.1h-.1v.1h.1l2.8.1.1.1V251.8l-.1.1-2.1-.1v-.9zM238.3 252.5v-.1h-.1v-.1l-.5-3.1h.1v-.1h.1-.1l-.8.1v.1h.1l.5 3.1v.1h-.1l-.1.1h.1zM235.9 249.7h-1.2l-.1.1h-.2l-.1.1h-.2l-.1.1-.1.1-.1.1h-.1l-.1.1-.1.1v.1h-.1v.1l-.1.1V251.5h.1v.2h.1v.1h.1v.1h.1v.1H234.5l.1-.1H234.9l.1-.1h.2l.1-.1H235.6l.1-.1.1.1h.2v.1h.1v.4h-.1v.1l-.1.1h-.1v.1h-.1l-.1.1h-.1l-.1.1h-.2v.1H234.2v-.1h-.1v-.1l-.1-.1v.9h1.2l.1-.1h.2l.1-.1.2-.1h.1l.1-.1.2-.1.1-.1.1-.1.1-.1.1-.1.1-.1V252.1l.1-.2-.1-.1V251.5l-.1-.1-.1-.1v-.1l-.1-.1h-.1l-.1-.1h-.2l-.1-.1h-.2l-.1.1H235.3l-.1.1H234.9l-.1.1h-.1l-.1.1H234.3l-.1.1h-.1v-.1h-.2v-.5h.1v-.1h.1v-.1h.1v-.1h.2v-.1h.2v-.1H235.7v.1h.1v.1-.1zM245.9 250.5v-.7l-.1-.1h-.1l-.1-.1h-.4l-2.1-.5-.8 3.1.7.2.3-1.2.7.2.5 1.4.9.2-.5-1.4h.3v-.4l.7-.7zm-.6.2v.2h-.5l-1.3-.3.2-.7 1.3.3H245.3v.5zM249.7 252.4v-.4l-.1-.1-.1-.1-.1-.1-.1-.1-.1-.1-1.8-1-1.5 2.7.7.4.6-1.1.7.4.1 1.5.7.4v-.1l-.1-1.5.1-.1.1-.1.1-.1.1-.1.1-.1.1-.1v-.4l.5.2zm-.6.1v.1l-1.2-.7.3-.6 1.2.7-.3.5zM232.7 254.4h-.1l-3-1.7v-.1l-.7.5h.1l.9 3.3v.2l.5-.4-.2-.7 1.1-.8.6.4.8-.7zm-2-.3l-.7.5-.3-1.2 1 .7zM228.8 256.2h-.1v.1h.1v.1h.1v.5l-.1.1v.2l-.1.1v.1l-.1.1-.1.1-.1.1-.1.1-.1.1h-.1l-.1.1-.1.1h-.6l-.1-.1h-.1l-.2-.1-.1-.1h-.1v-.1h-.1v-.1l-.1-.1-.1-.1V257.1h-.1v-.4l.1-.1v-.1l.1-.1v-.2h.1v-.1l.1-.1h.1v-.1h.1v-.1h.1v-.1h.1l.1-.1h.1l.1-.1h.4l-.3-.7v-.1h-.1v.2h-.2v.1h-.2v.1h-.1l-.1.1h-.1v.1h-.1l-.1.1-.1.1-.1.1-.1.1-.1.1v.1h-.1v.2l-.1.1v.1l-.1.1V257.3l.1.2.1.2.1.2.1.2.1.1.2.1.1.1.2.1.2.1.2.1h.7l.2-.1.2-.1.2-.1.1-.1.1-.1.1-.1h.1v-.1h.1v-.1l.1-.1.1-.1v-.1l.1-.1v-.1l.1-.1V257l.1-.2v-.4l.1-.1h-.1zM252.6 254.4l-.1-.1-.5-.5-3 1.3h-.2l.1.1.4.5.7-.3 1 1-.3.7.5.5 1.3-3.2h.1zm-.9.2l-.5 1.1-.5-.5-.1-.1-.1-.1 1.2-.4zM256.4 260.3h.1l.1.1v-.1l-.3-.6h-.1v.1h-.1l-2.4.3v-.1l1.6-1.9h.2l-.4-.8h-.1v.2l-2.1 2.5-.1.1h-.1l.3.7h.1v-.1h.1zM227.1 260.4h.1v.1h-.1l.1.1v-.1l.4-.7h-.2l-2.7-1.5v-.2h-.1l-.4.7v.1h.1v-.1h.1zM222.9 262.2v-.1h-.1l-.3.8h.2l2.9 1.1h.1v.1h.1l.2-.7h-.1v.1h-.1l-2.1-.8h-.1v-.1h.1l2.8-1 .1.1v-.1l.3-.6v-.1h-.1v.1h-.1l-2.9-1.1h-.1v-.1h-.1l-.2.6v.1h.1v-.1h.1l2 .8zM253.9 262.3h-.1l-.1-.1v.1l.2.8h.1v-.2h.1l2.9-1 .1.1.1.1v-.1l-.3-.8v.1h-.1v.1zM257.8 265.7v-.4l.1-.1V264.2l-.1-.1v-.2l-.1-.1v-.1l-.1-.1v-.1l-.1-.1v-.1l-.1-.1-.1-.1h-.1l-.1-.1v-.1H256.2v.1h-.1l-.1.1h-.1v.1l-.1.1v.2l-.1.1v.6l.1.1v.4l.1.1v.7h-.1v.1h-.4l-.1-.1-.1-.1v-.1h-.1v-.2l-.1-.1v-.1l-.1-.1V263.8h.1v-.2h.1l.1-.1v-.1l-.8-.1v.4h-.1V264.7l.1.1V265.1l.1.1v.2l.1.1v.1h.1v.2h.1v.1l.1.1h.1v.1h.1l.1.1h.2l.1.1H255.8l.1-.1h.2l.1-.1h.1v-.1h.1l.1-.1v-.2l.1-.1V264.8l-.1-.1V264.4l-.1-.1v-.7h.1v-.1h.4v.1h.1v.1h.1v.1l.1.1v.2h.1v1.2h-.1v.1l-.1.1v.1zM225.3 265.3h.1v.2l.1-.1.2-.8v-.1l-.1.1v.1h-.1l-3-.7h-.1v-.2h-.1l-.2.9h.1v-.1h.1zM225 268.4v.1h.1l.2-2.7h.1v-.1l-.7-.1v.1h.1v.1l-.2 1.9v.1l-2.7-.2-.1-.1-.1.8h.1v-.1h.1zM257.7 268.3h.1v1.1l-.1.1h.8v-.1h-.1v-.1l-.2-2.7.1-.1v-.1l-.7.1h-.1.1l.1.1v1.1l-2.7.1-.1-.1v.9h.1v-.2h.1zM223.9 269.5v.1-.1h.2v.1h.1l.1.1.1.1.1.1v.2h.1v.2h.1V271.2l-.1.1v.1l-.1.1v.1h-.1v.1l-.1.1h-.1l-.1.1h-.1l-.1.1h-.4l-.1.1-.1-.1H223l-.1-.1-.1-.1h-.1l-.1-.1v-.1l-.1-.1v-.1l-.1-.1v-.2l-.1-.1v-.7l.1-.1v-.2l.1-.1v-.1h.2v-.1l-.8-.3v.5l-.1.1v.2l-.1.1v.7l.1.1V271.4l.1.1v.2h.1v.1l.1.1.2.2.1.2.2.1.1.1.2.1h.4l.2.1h.2l.2-.1h.2l.2-.1.1-.1.2-.1.1-.1.2-.2.1-.1.1-.2.1-.2v-.2l.1-.1v-.7l-.1-.1V270.1l-.1-.1v-.2h-.1v-.2h-.1v-.1h-.1v-.1l-.1-.1-.1-.1v-.1h-.1v-.1zM258.2 271l-.1.1-2.9-1.6-.1.7.7.4-.2 1.4-.7.2-.1.7 3.2-.9.2-1zm-.8.4l-1.2.3.1-.9 1.1.6z"/><g><path class="st2" d="M222.9 286.1h-.4l.1-.3c0-.2.1-.3.2-.4.1-.1.2-.1.3-.1v.2c-.1 0-.1 0-.1.1 0 0-.1.1-.1.2h.2l-.2.3zm-.7 0h-.4l.1-.3c0-.2.1-.3.2-.4.1-.1.2-.1.3-.1v.2c-.1 0-.1 0-.1.1 0 0-.1.1-.1.2h.2l-.2.3zM224.4 286.5l.4.1c-.1.2-.2.4-.4.5-.2.1-.3.2-.6.2-.2 0-.4-.1-.6-.2-.1-.1-.2-.4-.2-.6 0-.2 0-.4.1-.6.1-.2.2-.3.4-.4.2-.1.3-.1.5-.1s.4.1.5.2c.1.1.2.3.2.5h-.4c0-.1-.1-.2-.1-.2-.1 0-.1-.1-.2-.1s-.2 0-.3.1c-.1.1-.2.2-.2.3-.1.1-.1.3-.1.4 0 .2 0 .3.1.4.1.1.2.1.3.1.1 0 .2 0 .3-.1.2-.2.3-.3.3-.5zM225.6 285.8h.2c.2 0 .3 0 .4.1.1.1.1.2.1.3v.1s0 .2-.1.4c0 .2-.1.3-.1.4v.2h-.4v-.2c-.1.1-.1.1-.2.1v-.2h.1l.1-.1s0-.1.1-.2H225.5v-.2c.2 0 .3 0 .3-.1v-.1-.1h-.2v-.4zm-.1.4h-.4c0-.1.1-.2.2-.3.1 0 .1-.1.2-.1v.4zm.1 1h-.2c-.1 0-.2 0-.3-.1-.1-.1-.1-.2-.1-.3 0-.1 0-.2.1-.3.1-.1.2-.1.5-.1v.2c-.1 0-.2 0-.2.1l-.1.1v.1h.2v.3zM226.8 285.8h.4l-.1.3c.1-.2.3-.3.4-.3h.2l-.1.3h-.1c-.1 0-.1 0-.2.1-.1 0-.1.1-.2.2 0 .1-.1.2-.1.4l-.1.4h-.4l.3-1.4zM228 285.3h.4l-.1.3h-.4l.1-.3zm-.1.5h.4l-.3 1.4h-.4l.3-1.4zM228.6 285.8h.4v.2c.1-.1.2-.1.3-.2h.3c.1 0 .2 0 .3.1.1.1.1.2.1.3v.3l-.2.8h-.4l.2-.8v-.2-.1h-.1s-.1 0-.2.1c-.1 0-.1.1-.2.2 0 0-.1.2-.1.3l-.1.6h-.4l.1-1.6zM230.8 287.5c.1 0 .1-.1.1-.1s0-.1.1-.2v-.1c-.1.1-.1.1-.2.1v-.2s.1 0 .1-.1c.1 0 .1-.1.1-.2v-.3c0-.1 0-.2-.1-.2-.1-.1-.1-.1-.2-.1h-.1v-.3c.1 0 .2 0 .2.1.1 0 .1.1.2.2l.1-.2h.4l-.2 1.2c0 .2-.1.3-.1.4 0 .1-.1.1-.1.2l-.1.1s-.1.1-.2.1h-.1v-.4zm-.8-.2l.4.1v.1l.1.1H230.8v.3h-.2c-.2 0-.4 0-.5-.1-.1-.1-.1-.3-.1-.5 0 .1 0 .1 0 0zm.8-.1h-.2c-.1 0-.3 0-.3-.1-.1-.1-.1-.2-.1-.4s0-.3.1-.5c.1-.1.1-.2.3-.3.1-.1.2-.1.3-.1v.3s-.1 0-.1.1c-.1.1-.1.1-.1.3v.2c0 .1 0 .2.1.2 0 .1.1.1.2.1h.1v.2zM233.5 285.8l-.1.3h-.3l-.2 1.2h-.4l.2-1.2h-.2l.1-.3h.2v-.1c0-.1 0-.2.1-.2 0-.1.1-.1.1-.1h.2c.1 0 .2 0 .4.1l-.1.3h-.2-.1v.2h.3zM234.2 285.8c.3 0 .4.1.6.2.1.1.2.3.2.5s-.1.4-.2.6c-.1.1-.3.2-.5.2v-.3c.1 0 .1-.1.2-.1.1-.1.2-.3.2-.5 0-.1 0-.2-.1-.2 0-.1-.1-.1-.2-.1h-.1v-.3zm-.8.9c0-.3.1-.5.2-.6.1-.1.3-.2.5-.2v.3c-.1 0-.1 0-.2.1s-.1.1-.1.2v.3c0 .1 0 .2.1.2 0 .1.1.1.2.1h.1v.3h-.1c-.1 0-.2 0-.4-.1-.1 0-.2-.1-.2-.2 0-.2-.1-.3-.1-.4zM235.3 285.8h.4l-.1.3c.1-.2.3-.3.4-.3h.2l-.1.3h-.1c-.1 0-.1 0-.2.1-.1 0-.1.1-.2.2 0 .1-.1.2-.1.4l-.1.4h-.4l.3-1.4zM237 286.1l.1-.3h.2v-.2l.4-.3-.1.5h.2l-.1.3h-.2l-.1.6V287h.2l-.1.3h-.2c-.1 0-.2 0-.3-.1-.1 0-.1-.1-.1-.2v-.3l.1-.6zM238.2 287.3h-.4l.4-2h.4l-.1.7c.1-.1.2-.1.2-.1h.2c.1 0 .2 0 .3.1.1.1.1.1.1.3v.3l-.2.8h-.4l.2-.9v-.2-.1h-.1c-.1 0-.1 0-.2.1l-.2.2s0 .2-.1.3l-.1.5zM240.9 286.7h-.6v-.2h.3c0-.1 0-.2-.1-.2 0-.1-.1-.1-.2-.1v-.3h.1c.2 0 .3 0 .4.2.1.1.2.3.2.5-.1-.1-.1 0-.1.1zm-.6.3c.1 0 .2-.1.2-.2l.3.1-.3.3c-.1.1-.2.1-.3.1v-.3zm0-.3h-.3c0 .1 0 .2.1.2.1.1.1.1.2.1h.1v.3h-.1c-.2 0-.3-.1-.5-.2-.1-.1-.2-.3-.2-.5s.1-.4.2-.5c.1-.2.3-.3.6-.3v.3c-.1 0-.1 0-.2.1s-.1.1-.1.3h.3v.2zM243.2 286.5l.4.1c-.1.2-.2.4-.4.5-.2.1-.3.2-.6.2-.2 0-.4-.1-.6-.2-.1-.1-.2-.4-.2-.6 0-.2 0-.4.1-.6.1-.2.2-.3.4-.4.2-.1.3-.1.5-.1s.4.1.5.2.2.3.2.5h-.4c0-.1-.1-.2-.1-.2-.1 0-.1-.1-.2-.1s-.2 0-.3.1c-.1.1-.2.2-.2.3-.1.1-.1.3-.1.4 0 .2 0 .3.1.4.1.1.2.1.3.1.1 0 .2 0 .3-.1.2-.2.3-.3.3-.5zM244.6 285.8c.3 0 .4.1.6.2.1.1.2.3.2.5s-.1.4-.2.6c-.1.1-.3.2-.5.2v-.3c.1 0 .1-.1.2-.1.1-.1.1-.3.1-.5 0-.1 0-.2-.1-.2 0-.1-.1-.1-.2-.1h-.1v-.3zm-.7.9c0-.3.1-.5.2-.6.1-.1.3-.2.5-.2v.3c-.1 0-.1 0-.1.1l-.2.2v.3c0 .1 0 .2.1.2.1.1.1.1.2.1h.1v.3h-.1c-.1 0-.3 0-.4-.1-.1 0-.2-.1-.2-.2-.1-.2-.1-.3-.1-.4zM245.8 285.8h.4v.2c.1-.1.3-.2.4-.2.1 0 .2 0 .2.1.1 0 .1.1.1.2 0-.1.1-.1.2-.2.1 0 .2-.1.3-.1.1 0 .2 0 .3.1.1.1.1.1.1.2v.3l-.2.9h-.4l.2-.9v-.2-.1h-.1c-.1 0-.2 0-.3.2 0 .1-.1.2-.1.4l-.1.7h-.4l.2-.9v-.2-.1h-.1-.1l-.1.1s-.1.1-.1.2v.2l-.1.7h-.4l.1-1.6zM248.2 285.8h.4v.2c.1-.1.3-.2.4-.2.1 0 .2 0 .2.1.1 0 .1.1.1.2 0-.1.1-.1.2-.2.1 0 .2-.1.3-.1.1 0 .2 0 .3.1.1.1.1.1.1.2v.3l-.2.9h-.4l.2-.9v-.2-.1h-.1c-.1 0-.2 0-.3.2-.1.1-.1.2-.1.4l-.1.7h-.4l.2-.9v-.2-.1h-.1-.1l-.1.1s-.1.1-.1.2v.2l-.1.7h-.4l.1-1.6zM250.7 285.8h.4l-.2.8V286.9h.2s.1 0 .1-.1l.1-.1.1-.1s0-.1.1-.2l.1-.7h.4l-.3 1.4h-.4v-.2c-.2.2-.3.2-.5.2-.1 0-.2 0-.3-.1-.1-.1-.1-.2-.1-.3v-.3l.3-.6zM252.4 285.8h.4v.2c.1-.1.2-.1.3-.2h.2c.1 0 .2 0 .3.1.1.1.1.2.1.3v.3l-.2.8h-.5l.2-.8v-.2-.1h-.1s-.1 0-.2.1c-.1 0-.1.1-.2.2 0 0-.1.2-.1.3l-.1.6h-.4l.3-1.6zM254.2 285.3h.4l-.1.3h-.4l.1-.3zm-.1.5h.4l-.3 1.4h-.4l.3-1.4zM254.6 286.1l.1-.3h.2v-.2l.4-.3-.1.5h.2l-.1.3h-.2l-.1.6V287h.2l-.1.3h-.2c-.1 0-.2 0-.3-.1-.1 0-.1-.1-.1-.2v-.3l.1-.6zM255.6 285.8h.4l.1.7v.4c0-.1.1-.3.2-.5l.3-.6h.4l-.9 1.6c-.1.1-.1.2-.2.3l-.1.1h-.5v-.3h.1c.1 0 .2-.1.3-.3l-.1-1.4zM257.4 285.3h.4l-.1.3c0 .2-.1.3-.2.4-.1.1-.2.1-.3.1v-.2c.1 0 .1 0 .1-.1 0 0 .1-.1.1-.2h-.2l.2-.3zm.6 0h.4l-.1.3c0 .2-.1.3-.2.4-.1.1-.2.1-.3.1v-.2c.1 0 .1 0 .1-.1 0 0 .1-.1.1-.2v-.3z"/></g><g><path class="st2" d="M239.5 263.2l.1-.1h.5l.1-.1h.2l.1-.1h.2l.1-.1h.1l.1-.1h.1v-.1h.2v-.1h.1l.1-.1.1-.1h.1v-.1h.1v-.1h.1v-.1h.1l.1-.1.1-.1.1-.1v-.1h.1v-.1l.1-.1v-.1h.1v-.2h.1v-.1l.1-.1v-.1l.1-.3.1-.2.1-.3v-.4l.1-.3v-.2l-.1-.3v-.4l-.1-.3v-.2l-.1-.2-.1-.2-.1-.2-.1-.3-.2-.2-.1-.2-.2-.2-.1-.2h-.1l-.1-.1-.1-.1-.1-.1h-.1v-.1h-.1l-.1-.1h-.1l-.1-.1h-.1l-.1-.1h-.1l-.1-.1h-.1l-.1-.1h-.2l-.1-.1h-.4l-.1-.1H238.8l-.1.1h-.4l-.1.1H237.9l-.1.1h-.2v.1h-.2l-.1.1-.1.1h-.1l-.1.1-.1.1h-.1l-.1.1-.1.1-.1.1-.1.1-.1.1-.1.1-.1.1-.1.1-.1.1v.1l-.1.1-.1.1v.1l-.1.1v.2l-.2.3-.1.3v.3l-.1.4v.6l.1.4v.3l.1.3.1.3.1.3.2.3.2.2.2.3.2.2.3.3.2.2.3.1.3.2.3.1.1.1H238.2v.1h.6l.1.1h.6zM247.5 265.7h.4l.1-.1h.2l.1-.1h.1l.1-.1h.1l.1-.1h.1l.1-.1h.1v-.1l.1-.1h.1l.1-.1.1-.1.2-.2.1-.2.1-.1.1-.2.1-.2.1-.1.1-.2v-.2l.1-.2v-.2l.1-.2V262.2l-.1-.2v-.4l-.1-.2v-.2l-.1-.1-.1-.1v-.2l-.1-.1-.1-.1v-.1l-.1-.1-.1-.1-.1-.1-.1-.1-.1-.1-.1-.1-.1-.1-.1-.1h-.1l-.2-.1-.1-.1h-.1l-.1-.1-.1-.1H248l-.1-.1h-.5l-.1-.1h-.4l-.3.1h-.3l-.3.1-.3.1-.2.2-.3.1-.2.2-.2.2-.2.2-.2.2-.1.3-.2.3-.1.2-.1.3v.3l-.1.3v.6l.1.3.1.3v.1l.1.2v.1l.1.2.1.1v.1l.1.1.1.1.1.1.1.1.1.1.1.1.1.1.1.1.1.1.1.1.1.1h.1l.2.1.1.1h.1l.1.1H246.3v.1H247.4z"/><path class="st2" d="M242.7 272.2h.2l.2.4v.1l.1 3v.1-.1h.2l2.5-1 .1-.1h.2l.1-.1h.2l.1-.1h.2l.2-.1h.1l.2-.1h.1l.2-.1H247.9l.2-.1h.2l.1-.1h.5l.1-.1h.4l.1-.1h.7v-.1h.9V266.9h-.1v-.2h-.1v-.1h-.1l-1-1v-.1h-.1l-.1-.1h-.2v.1l-.1.1v.1l-.1.1v.1h-.1v.1h-.1v.1h-.1v.1h-.1v.1h-.1l-.1.1h-.1l-.1.1-.2.1h-.1l-.2.1H247.6l-.2.1h-.6l-.2-.1H246.3l-.1-.1h-.2l-.1-.1-.2-.1-.1-.1-.1-.1-.1-.1h-.1v-.1h-.1v-.1h-.1v-.1l-.2-.3h-.1l-.4.3h-.1v.1l-.3.2h-.1V264.2h-.1v-.2l-.1-.1-.1-.1v-.1h-.1v-.1h-.1v-.1h-.1l-1-.9-.1.1-.4.3v.1h-.1v.1h-.1v.1h-.1l-.1.1h-.1l-.1.1h-.1v.1h-.1l-.2.1h-.1l-.2.1h-.1l-.2.1h-1.3l-.1-.1H238.5l-.2-.1-.1-.1h-.2l-.1-.1h-.1l-.1-.1h-.1l-.1-.1h-.1v-.1h-.1l-.1-.1-.1-.1h-.1l-.1-.1-.1-.1v-.1h-.1v-.1h-.2v.1l-.1.1h-.1v.1h-.1v.1h-.1l-.1.1-.1.1-.1.1-.1.1-.1.1-.1.1-.1.1v.1h-.1v.1h-.1v.2h-.1V270.1v-.1l-.6-.6-.1-.1-.1-.1-.1-.1h-.1l-.2.2-.1.1-.2.1-.1.1-.2.1-.1.1-.2.1-.1.1-.2.1H232.4l-.1.1h-.7l-.2-.1h-.2l-.1-.1-.2-.1h-.1l-.1-.1h-.1l-.1-.1h-.1l-.1-.1-.5-.4v-.1h-.1v-.1h-.1l-1 1.2v.1h-.1v.1l-.1.1V276h1.3l.1.1h.4l.1.1h.4l.1.1H231.1l.3.1.3.1.2.1h.3l.2.1.3.1.2.1.3.1.2.1.3.1.2.1.2.1.3.1.2.1.3.1.2.1.2.2.3.1.2.1.3.2.1.1h.1v.1h.1l.1.1h.1l.1.1h.1v.1h.1l.1.1.1.1.4.3h.1l.6-.5v-6.1l.4-.5h.1l.5.3h.2v.1h.4l.1.1h.4l.1.1H241.2v-.1H241.5l.1-.1H241.9v-.1h.2l.1-.1z"/><path class="st2" d="M232.1 269.3h.3l.4-.1.3-.2.3-.1.3-.3.3-.2.2-.3.2-.3.1-.3.1-.3.1-.3.1-.4v-.7l-.1-.3-.1-.4-.2-.3-.2-.3-.2-.3v-.1h-.1v-.1h-.1l-.1-.1-.1-.1h-.1v-.1h-.1v-.1h-.2v-.1h-.1l-.1-.1h-.2l-.1-.1h-.2l-.1-.1h-1.3l-.2.1h-.2l-.2.1-.2.1-.2.1-.2.2-.2.1-.2.2-.1.1-.2.2-.1.2-.1.2-.1.2-.1.2-.1.2v.3l-.1.2v.7l.1.1v.4l.1.1v.2l.1.1v.1l.1.1v.1l.1.1v.1l.1.1.1.1.1.1.1.1v.1h.1l.1.1.1.1.1.1h.1v.1h.1l.1.1h.2v.1h.1l.1.1H230.9v.1h.6v.1h.2zM240.8 271.7h.5v-.1H241.6v-.1l.3-.1.3-.2.3-.2.2-.2.2-.3.2-.2.1-.3.1-.3v-.3l.1-.3v-.3l-.1-.3v-.3l-.1-.3-.1-.3-.2-.3-.2-.2-.2-.2-.3-.3-.3-.1v-.1h-.2l-.1-.1h-.2l-.1-.1h-.5v-.1h-.4v.1h-.5l-.1.1h-.2v.1l-.4.1-.2.2-.3.2-.2.3-.2.2-.2.3-.1.3-.1.3v.3l-.1.3.1.3v.3l.1.3.1.3.1.3.2.2.2.3.3.2.2.2.3.2h.2l.1.1h.2l.1.1h.7zM258.2 275.2l.1-.1v-.6h.1l-.1-.1-1.1-.1-.7-.1-.7-.1H252l-.8.1h-.7l-.8.1-.7.2-.8.1-.7.2-.8.2-.7.2-.7.2-.7.3-.7.2-.7.4-.6.3-.2.1h-.1l-.2.1-.2.1-.1.1-.2.1-.1.1-.2.1-.1.1h-.2l-.1.1-.2.1-.1.1-.2.1-.1.1-.2.1-.1.1-.1.1-.2.1-.1.2-.1.1-.1.1h-.2l-.1.1-.1.1-.1.1-.1.1-.1.1-.2.2-.2.1-.1.1-.2.2-.2.2-.2.2-.2.1-.2.2-.1.2-.2.2-.2.2-.2.2-.1.2-.2.2-.2.2-.1.2-.2.2-.1.2-.1.2-.1.2-.3.4v.1l.6.3h.1l.2-.4.1-.1v-.1l.1-.1.1-.1v-.1l.1-.1.1-.1.1-.1.1-.1.1-.2.2-.2.1-.2.1-.1.2-.2.1-.1.2-.2.1-.1.2-.2.1-.1.1-.2.2-.1.2-.2.1-.1.2-.2.1-.1.2-.1.2-.2.1-.1.1-.1.1-.1.1-.1.1-.1h.1l.1-.1.1-.1.1-.1h.1l.1-.1.1-.1.1-.1h.1l.1-.1.1-.1h.2l.1-.1.1-.1h.1l.1-.1h.1v-.1h.1l.1-.1h.1l.1-.1h.1l.1-.1.1-.1h.1l.1-.1h.1l.1-.1h.1l.1-.1.1-.1h.1l.2-.1h.1l.1-.1h.1l.1-.1h.1l.2-.1h.1l.1-.1h.1l.1-.1h.2l.1-.1h.1l.1-.1h.2l.1-.1.2-.1h.1l.2-.1h.2l.2-.1.1-.1h.2l.2-.1H247l.2-.1h.2l.1-.1h.2l.2-.1H248.2l.2-.1h.2l.4-.1.4-.1h.4l.5-.1h.4l.5-.1h.9l.5-.1h2.3l.5.1h.9l.4.1h.4l.4.1z"/><path class="st2" d="M236.5 283.7H258.5v-8H258.2l-.2-.1H257.7l-.2-.1h-.7l-.2-.1H255l-.2-.1H253.4l-.2.1h-1.8l-.1.1h-.7l-.1.1h-.5l-.1.1h-.6l-.1.1h-.4l-.1.1H248.4l-.1.1H248l-.5.1-.4.1-.5.2-.4.1-.5.2-.4.1-.4.2-.5.2-.4.2-.5.2-.4.2-.4.2-.4.3-.4.2-.4.3-.4.2-.4.3-.4.3-.3.3-.4.3-.1.1-.1.1v.1h-.1l-.1.1-.1.1-.1.1-.1.1h-.1v.1l-.1.1-.1.1-.1.1-.1.1h-.1v.1l-.1.1-.1.1-.1.1-.1.1v.1l-.1.1h-.1l-.1.1-1 1.4zM236.7 280.4h.1l.4-.5v-.1l-.1-.1h-.1l-1.1-.8h-.1l-.1-.1h-.1l-.1-.1-.1-.1h-.1l-.2-.1-.1-.1h-.1l-.1-.1h-.1l-.2-.1h-.1l-.1-.1-.1-.1h-.1l-.2-.1h-.1l-.1-.1h-.1l-.2-.1h-.1l-.1-.1-.5-.1-.4-.2-.5-.1-.5-.1-.5-.1-.4-.1-.5-.1-.5-.1h-.5l-.5-.1H226l-.5.1h-.5l-.4.1-.5.1-.5.1h-.2l-.1.1h-.4l-.1.1H222.5l-.1.1h-.2l-.1.1h-.2l-.1.1h-.1l.2.7h.1l1.4-.4h.1l.1-.1h.4l.1-.1h.5l.1-.1h.4l.2-.1H226.4l.2-.1H228.1l.1.1H229.1l.1.1h.7l.1.1h.4l.1.1H230.8l.1.1h.5l.1.1h.2l.1.1H232.1l.1.1h.2l.1.1h.1l.2.1h.1l.1.1h.2l.1.1h.1l.1.1h.1l.1.1h.1l.1.1h.2l.1.1h.1l.1.1h.1l.1.1h.1l.1.1h.1l.1.1h.1l.1.1.1.1h.1l.1.1h.1l.1.1h.1l.1.1.1.1h.1l.1.1.1.1h.1l.1.1z"/><path class="st2" d="M221.6 283.5h12.9l.5-.9v-.1l.2-.2 1.1-1.6h.1l-.1-.1-.4-.2-.1-.1-.1-.1-.2-.1h-.1l-.2-.1-.1-.1h-.1l-.2-.1-.1-.1h-.1l-.2-.1-.1-.1h-.2l-.1-.1h-.1l-.2-.1-.1-.1h-.2l-.1-.1h-.1l-.6-.2-.5-.2-.6-.1-.5-.2-.6-.1-.6-.1-.5-.1h-.6l-.6-.1h-2.2l-.6.1-.6.1-.5.1-.6.1-.5.1-.6.1-.5.2-.4.1v4.6zM221.6 278.3l1.1-.3v-.8h-.2l-.1.1h-.2l-.1.1h-.2l-.1.1h-.2z"/><path class="st2" d="M227 282.9h-5.4v.8h12.7l.5-.8zM235.7 283.7h.1v-.1l.1-.1v-.1l.1-.1h-.9l-.2.4zM258.5 274.5l-.6-.1v.7l.6.1z"/></g></g><g><path class="st3" d="M29.6 344.9c-3.8 0-6.6-2.6-6.6-7.7s2.9-7.7 6.6-7.7c2.1 0 3.4.6 4.9 2.2l-1.5 1.4c-1.1-1.2-2-1.7-3.4-1.7-1.5 0-2.7.6-3.5 1.7-.7 1-1 2.1-1 4s.3 3 1 4c.8 1.1 2 1.7 3.5 1.7 1.4 0 2.3-.5 3.4-1.7l1.5 1.4c-1.5 1.8-2.9 2.4-4.9 2.4M47 344.7v-1.4c-1.2 1.2-2.3 1.6-4.3 1.6-2.1 0-3.3-.4-4.2-1.4-.7-.7-1.1-1.9-1.1-3 0-2.6 1.8-4.3 5.2-4.3H47v-1.4c0-2.2-1.1-3.3-3.8-3.3-1.9 0-2.9.5-3.8 1.7l-1.5-1.4c1.3-1.7 2.9-2.2 5.3-2.2 4 0 6 1.7 6 5v10.2H47zm0-6.9h-4.2c-2.3 0-3.4.9-3.4 2.7 0 1.7 1.1 2.6 3.4 2.6 1.3 0 2.4-.1 3.4-1 .5-.5.8-1.3.8-2.6v-1.7zM56.7 344.7c-2.6 0-3.8-1.7-3.8-4V323h2.2v17.6c0 1.5.5 2.2 2 2.2h1.2v1.9h-1.6zM61.1 322.9h2.5v2.5h-2.5v-2.5zm.1 6.8h2.2v15h-2.2v-15zM70.9 331.4v13.2h-2.2v-13.2h-1.9v-1.7h1.9v-2.8c0-2.2 1.3-4 3.8-4h1.6v1.9h-1.2c-1.4 0-2 .8-2 2.2v2.8h3.2v1.7h-3.2zM86.4 343.1c-1 1-2.5 1.7-4.3 1.7-1.8 0-3.3-.7-4.3-1.7-1.5-1.6-1.8-3.7-1.8-6s.3-4.4 1.8-6c1-1 2.5-1.7 4.3-1.7 1.8 0 3.3.7 4.3 1.7 1.5 1.6 1.8 3.7 1.8 6 0 2.4-.3 4.5-1.8 6m-1.6-10.6c-.7-.7-1.7-1.1-2.7-1.1-1.1 0-2 .4-2.7 1.1-1.1 1.1-1.2 3-1.2 4.6 0 1.7.1 3.5 1.2 4.6.7.7 1.6 1.1 2.7 1.1s2-.4 2.7-1.1c1.1-1.1 1.2-3 1.2-4.6 0-1.6-.1-3.5-1.2-4.6M100.1 332.5c-.8-.8-1.4-1.1-2.6-1.1-2.2 0-3.6 1.7-3.6 4v9.2h-2.2v-15h2.2v1.8c.8-1.3 2.5-2 4.2-2 1.4 0 2.5.3 3.6 1.4l-1.6 1.7zM113.8 344.7v-9.2c0-2.7-1.4-4-3.7-4-2.3 0-3.7 1.4-3.7 4v9.2h-2.2v-15h2.2v1.6c1.1-1.2 2.5-1.8 4.2-1.8 1.6 0 2.9.5 3.8 1.4 1.1 1 1.6 2.4 1.6 4.2v9.6h-2.2zM119.8 322.9h2.5v2.5h-2.5v-2.5zm.1 6.8h2.2v15h-2.2v-15zM135.4 344.7v-1.4c-1.2 1.2-2.3 1.6-4.3 1.6-2.1 0-3.3-.4-4.2-1.4-.7-.7-1.1-1.9-1.1-3 0-2.6 1.8-4.3 5.2-4.3h4.5v-1.4c0-2.2-1.1-3.3-3.8-3.3-1.9 0-2.9.5-3.8 1.7l-1.5-1.4c1.3-1.7 2.9-2.2 5.3-2.2 4 0 6 1.7 6 5v10.2h-2.3zm0-6.9h-4.2c-2.3 0-3.4.9-3.4 2.7 0 1.7 1.1 2.6 3.4 2.6 1.3 0 2.4-.1 3.4-1 .5-.5.8-1.3.8-2.6v-1.7z"/><g><path class="st4" d="M163.7 341.2c-4.2 4.8-8 5.5-9.1 2.4-.2-.5-.3-1-.4-1.6-.1-.6-.1-1-.2-1.3-.2-1.3-.2-2.5-.3-3.8 0-1.3-.1-2.5-.1-3.8v-.3c0-.1 0-.3-.1-.5s-.2-.3-.4-.3c-.3 0-.6.2-1 .7-.4.5-.8 1.1-1.2 1.9-.4.8-.9 1.6-1.3 2.6-.4.9-.9 1.8-1.2 2.7-.4.9-.7 1.7-1 2.3-.3.7-.5 1.2-.6 1.5-.1.2-.2.4-.3.7-.1.2-.2.5-.3.7-.1.2-.3.4-.5.5-.2.1-.4.2-.7.2-.3 0-.5-.1-.6-.2-.2-.2-.3-.3-.4-.5-.1-.2-.2-.4-.3-.7-.1-.2-.1-.5-.1-.7-.1-.6-.1-1.2-.1-1.8v-1.8-3.4-3.4-4.3c0-1.6 0-3.2.1-4.9.1-1.6.2-3.2.4-4.7s.5-2.8 1-3.9c.1-.3.2-.6.4-.8.2-.3.4-.5.6-.8.2-.2.5-.4.8-.6.3-.2.6-.2.9-.2.4 0 .7.1 1 .4.3.2.5.5.7.9.2.3.3.7.4 1.1.1.4.2.7.2 1 .3 2.6.2 5.2-.2 7.7-.5 2.5-1.2 4.9-2.1 7.2-.2.6-.4 1.1-.7 1.7-.2.5-.5 1.1-.7 1.6-.1.1-.1.5-.1 1s-.1 1.1-.1 1.7c0 .6 0 1.2-.1 1.8v1.2c.2-.5.4-1.1.7-1.7.3-.7.6-1.4 1-2.2.4-.8.8-1.6 1.2-2.3.5-.8.9-1.5 1.4-2.1.5-.6 1-1.1 1.6-1.5.6-.4 1.1-.6 1.6-.6.4 0 .7.1 1 .3.3.2.5.5.7.8.2.3.3.7.4 1 .1.4.2.7.2 1 .2 1.5.3 3 .2 4.4 0 1.5 0 2.9.2 4.4 0 .2 0 .3.1.5 0 .2.1.4.2.5 1.1 2.1 3.7-.4 6.9-3 .9-.7 1.9-.6.3 1.3m-16.5-25.3c-.3.7-.5 1.6-.7 2.7-.2 1.1-.3 2.3-.4 3.7-.1 1.3-.2 2.6-.2 3.8 0 1.2-.1 2.3-.1 3.3v2.1c.4-1 .8-2.1 1.2-3.3.4-1.3.8-2.6 1.1-4 .3-1.4.5-2.7.7-4.1.1-1.3.1-2.6 0-3.6v-.4c0-.2-.1-.4-.1-.6-.1-.2-.1-.4-.2-.5-.1-.1-.2-.2-.3-.2-.4 0-.8.4-1 1.1"/><path class="st4" d="M163.7 339.6c.4-.4 2.8-3.4 3.1-3.8.3-.5.6-1 .8-1.5.2-.5.3-1 .2-1.5 0-.2-.1-.4-.2-.6-.1-.2-.3-.3-.5-.3-.4 0-.7.3-1 .8-.3.5-.5 1.1-.8 1.8-.2.7-.4 1.4-.5 2-.3 1.6-.3 3.2-.1 4.3.1.8.4 1.4.8 1.9s1 .7 1.8.7 1.4-.1 2.1-.4c.6-.3 1.2-.7 1.7-1.1.5-.5 1-1 1.4-1.6.4-.6.7-1.2 1-1.8.1-.2.2-.4.4-.6.1-.2.3-.3.6-.3.1 0 .2 0 .3.1.1.1.2.2.2.3v.6c0 .1-.1.3-.2.5-.3.8-.8 1.6-1.4 2.3-.6.7-1.2 1.4-1.9 1.9s-1.5 1-2.3 1.3c-.9.3-1.8.5-2.7.5-.7 0-1.3-.1-1.9-.4-.5-.3-1-.6-1.3-1.1-.4-.4-.7-.9-.9-1.5-.2-.6-.4-1.2-.4-1.8-.1-.8-.1-1.8.1-2.9.2-1.1.5-2.2.9-3.3.4-1 1-1.9 1.7-2.7.7-.7 1.5-1.1 2.5-1.1.6 0 1.1.2 1.5.6.4.4.6.9.7 1.5.1.6 0 1.2-.3 2-.3.7-.7 1.4-1.1 2.1-.5.7-3.3 4-3.8 4.5"/><path class="st4" d="M189.8 339.3c-.2.3-.3.5-.4.7-.3.4-.6 1-1 1.6-.4.6-.8 1.1-1.3 1.7-.5.5-1 1-1.6 1.3-.6.4-1.2.5-1.8.5-.6 0-1.1-.2-1.5-.6-.4-.4-.7-.9-1-1.5-.3-.6-.5-1.2-.6-1.8-.1-.6-.2-1.1-.2-1.6-.2.4-.4.8-.7 1.3-.3.5-.6 1-1 1.5s-.8.9-1.2 1.3c-.4.4-.9.5-1.4.5-.4 0-.8-.1-1.1-.4-.3-.3-.6-.6-.8-1-.2-.4-.4-.8-.5-1.2-.1-.4-.2-.8-.2-1.1-.1-.9 0-2 .3-3.1.3-1.2.8-2.3 1.4-3.3.6-1 1.4-1.9 2.2-2.6.9-.7 1.8-1.1 2.9-1.1.3 0 .5.1.8.4.3.2.4.5.5.7 0 .1 0 .2-.1.3l-.2.2c-.6.4-1.1.8-1.7 1.2-.5.4-1 .9-1.5 1.4-.8.9-1.4 2-1.8 3.2-.4 1.2-.5 2.4-.4 3.8 0 .1.1.3.1.5.1.2.2.3.4.3.3 0 .5-.2.8-.5.3-.3.6-.7.9-1.2.3-.5.6-1 .8-1.6.3-.6.5-1.2.8-1.7.2-.6.4-1.1.6-1.6.2-.5.3-.8.4-1.1.1-.3.2-.5.4-.7.1-.2.4-.3.7-.3.2 0 .4 0 .6.1.2.1.3.2.3.5s0 .6-.1 1-.2.8-.3 1c-.1.6-.2 1.3-.2 2s0 1.3.1 2c0 .2.1.5.1.8.1.4.1.8.3 1.1.1.4.3.7.5 1 .2.3.4.4.7.4.4 0 .9-.2 1.3-.6.5-.4.9-.8 1.4-1.3.4-.5.8-1 1.2-1.6.4-.5.6-1 .8-1.3l.3-.6c.1-.2.3-.3.6-.3.4 0 .6.2.6.7 0 .2-.1.4-.2.7"/><path class="st4" d="M192 345c-.5-.4-1-1-1.4-1.6-.4-.7-.8-1.4-1.1-2.3-.3-.8-.5-1.7-.7-2.5-.2-.8-.4-1.6-.5-2.3-.1-.7-.2-1.3-.3-1.8-.3-2.5-.4-4.9-.3-7.3.1-2.4.5-4.8 1.2-7 .1-.4.3-.9.6-1.5s.6-1.2.9-1.7c.4-.6.8-1 1.2-1.4.5-.4.9-.6 1.5-.6.4 0 .8.1 1.1.3.3.2.5.5.7.8.2.3.3.7.5 1 .1.4.2.7.2 1.1.1 1.1.2 2.3.1 3.6-.1 1.3-.3 2.6-.5 3.9-.3 1.3-.6 2.6-.9 3.8-.4 1.2-.8 2.3-1.2 3.3-.2.5-.4.9-.7 1.4-.2.4-.5.9-.7 1.4-.1.1-.2.3-.3.5-.1.2-.2.4-.2.5 0 .2-.1.4 0 .8 0 .3.1.6.1.8 0 .4.1.8.2 1.5.1.6.3 1.2.5 1.9.2.6.5 1.1.9 1.6.3.4.8.7 1.2.7.4 0 .9-.2 1.3-.5.5-.3.9-.7 1.3-1.2s.8-.9 1.1-1.4c.3-.5.6-.9.8-1.2.1-.2.3-.5.4-.7.1-.2.2-.5.4-.7.1-.1.2-.3.3-.4.1-.1.2-.1.4-.1s.3.1.4.2c.1.1.1.3.2.4 0 .2 0 .5-.1.7l-.3.6c-.3.6-.6 1.2-1.1 2-.4.8-.9 1.5-1.5 2.1-.6.7-1.2 1.2-1.9 1.7s-1.4.7-2.1.7c-.6-.4-1.2-.6-1.7-1.1m.5-27.7c-.3.4-.5.9-.7 1.4-.2.5-.3 1.1-.4 1.7-.1.6-.2 1-.2 1.3-.3 1.6-.5 3.4-.7 5.2-.2 1.8-.2 3.6 0 5.3 0 .2 0 .4.1.5 0 .1 0 .3.1.5.4-1 .9-2.1 1.4-3.4.5-1.3.9-2.6 1.3-4s.6-2.7.8-4.1c.2-1.4.2-2.6.1-3.7v-.3c0-.2-.1-.3-.1-.5-.1-.1-.1-.3-.2-.4-.1-.1-.2-.2-.3-.2-.6.1-.9.3-1.2.7"/><path class="st4" d="M204.5 330.8c-.4 1.1-.8 2.1-1.3 3.1-.1.3-.2.5-.4.7-.1.2-.3.5-.4.7-.1.1-.2.2-.3.4-.1.1-.2.3-.2.4v.8c0 .4.1.9.3 1.6.1.7.3 1.5.6 2.2.2.8.6 1.4.9 2 .4.6.8.8 1.2.8.5 0 1.1-.2 1.6-.6.5-.4 1-.9 1.5-1.5s.9-1.2 1.2-1.8c.4-.6.6-1.1.8-1.6.1-.2.2-.3.3-.5.1-.2.3-.3.5-.3.1 0 .3.1.4.2.1.1.2.2.2.4 0 .3 0 .5-.1.7-.1.2-.2.5-.3.7-.3.6-.6 1.2-1.1 2l-1.5 2.1c-.6.7-1.2 1.2-1.9 1.7s-1.4.7-2.1.7c-.6 0-1.2-.2-1.7-.6-.5-.4-1-.9-1.3-1.5-.4-.6-.7-1.3-1-2-.3-.8-.6-1.5-.8-2.3-.2-.8-.4-1.5-.5-2.1-.1-.7-.2-1.2-.3-1.7-.1-1.2-.2-2.3-.3-3.5-.1-1.2 0-2.3.1-3.4-.2.1-.5.1-.7.1-.6 0-.9-.3-.9-.8-.1-.5.1-.8.5-.9.4-.1.8-.2 1.2-.2.1-.6.3-1.5.5-2.6s.5-2.1.9-3.2c.4-1 .9-1.9 1.5-2.7.6-.8 1.3-1.1 2.1-1.1.4 0 .7.1.9.4.2.2.4.5.6.8.1.3.3.7.3 1 .1.4.1.7.1.9.1.9.2 1.8.1 2.8 0 .9-.1 1.9-.2 2.8.4 0 .8-.1 1.2-.2.4-.1.8-.1 1.2-.1.3 0 .5.2.6.5 0 .2 0 .3-.1.4l-.3.3c-.1 0-.3.1-.5.2s-.5.2-.8.2c-.3.1-.6.2-.9.2-.3.1-.5.1-.6.1-.1 1.2-.4 2.2-.8 3.3m-3.3.4c.1.9.1 1.9.2 2.8.2-.3.5-.8.7-1.3.3-.5.5-1.1.7-1.6.2-.6.4-1.1.6-1.7.2-.6.3-1 .4-1.5-.4.1-.8.2-1.2.2-.4 0-.8.1-1.2.2-.2 1-.2 1.9-.2 2.9m1.6-11.3c-.3.6-.6 1.4-.8 2.3-.2.9-.4 1.7-.5 2.5-.1.8-.2 1.4-.2 1.8.5-.1.9-.1 1.4-.2.5 0 1-.1 1.4-.2.2-.9.3-1.9.3-3 .1-1.1 0-2.1-.1-3.1v-.2c0-.1 0-.2-.1-.4 0-.1-.1-.2-.1-.3-.1-.1-.1-.1-.2-.1-.4 0-.8.3-1.1.9"/><path class="st4" d="M219 332.7c-.4.5-.8 1.1-1.2 1.9-.4.8-.9 1.6-1.3 2.6-.4.9-.9 1.8-1.2 2.7-.4.9-.7 1.7-1 2.3-.3.7-.5 1.2-.6 1.5-.1.2-.2.4-.2.7-.1.2-.2.5-.3.7-.1.2-.3.4-.5.5-.2.1-.4.2-.7.2-.3 0-.5-.1-.6-.2-.2-.2-.3-.3-.4-.5-.1-.2-.2-.4-.3-.7-.1-.2-.1-.5-.1-.7-.1-.6-.1-1.2-.1-1.8v-1.8-3.4-3.4-4.3c0-1.6.1-3.2.1-4.9.1-1.6.2-3.2.4-4.7s.5-2.8 1-3.9c.1-.3.2-.6.4-.8.2-.3.4-.5.6-.8.2-.2.5-.4.8-.6.3-.2.6-.2.9-.2.4 0 .7.1 1 .4.3.2.5.5.7.9.2.3.3.7.4 1.1.1.4.2.7.2 1 .3 2.6.2 5.2-.2 7.7-.5 2.5-1.2 4.9-2.1 7.2-.2.6-.4 1.1-.7 1.7-.2.5-.5 1.1-.7 1.6-.1.1-.1.5-.1 1s-.1 1.1-.1 1.7c0 .6-.1 1.2-.1 1.8v1.2c.2-.5.4-1.1.7-1.7.3-.7.6-1.4 1-2.2.4-.8.8-1.6 1.2-2.3.5-.8.9-1.5 1.4-2.1.5-.6 1-1.1 1.6-1.5.6-.4 1.1-.6 1.6-.6.4 0 .7.1 1 .3.3.2.5.5.7.8.2.3.3.7.4 1 .1.4.2.7.2 1 .2 1.5.2 3 .2 4.4 0 1.5 0 2.9.2 4.4 0 .2 0 .3.1.5 0 .2.1.4.2.5.1.2.2.3.3.4.1.1.3.2.6.2.5 0 1-.2 1.5-.6.5-.4 1-.9 1.4-1.4.5-.5.9-1.1 1.2-1.7.4-.6.7-1.1.8-1.4.1-.1.2-.3.3-.5.1-.2.3-.3.5-.3s.4.1.4.2c.1.1.1.3.2.5v.3c0 .1-.1.2-.1.3-.3.7-.6 1.4-1.1 2.2-.5.8-1.1 1.5-1.7 2.2-.6.7-1.4 1.3-2.1 1.7-.8.5-1.6.7-2.4.7-.5 0-.9-.2-1.2-.6-.3-.4-.5-.8-.7-1.3-.2-.5-.3-1-.4-1.6-.1-.6-.1-1-.2-1.3-.2-1.3-.2-2.5-.3-3.8 0-1.3-.1-2.5-.1-3.8v-.3c0-.1 0-.3-.1-.5s-.2-.3-.4-.3c-.2-.3-.5 0-.9.5m-5-16.8c-.3.7-.5 1.6-.7 2.7-.2 1.1-.3 2.3-.4 3.7-.1 1.3-.2 2.6-.2 3.8 0 1.2-.1 2.3-.1 3.3v2.1c.4-1 .8-2.1 1.2-3.3.4-1.3.8-2.6 1-4 .3-1.4.5-2.7.7-4.1.1-1.3.1-2.6 0-3.6v-.4c0-.2-.1-.4-.1-.6-.1-.2-.1-.4-.2-.5-.1-.1-.2-.2-.3-.2-.3 0-.6.4-.9 1.1M233.5 322.9h-4.2v-4.2h-2.2v4.2h-4.2v2.2h4.2v4.2h2.2v-4.2h4.2z"/><g><path class="st4" d="M231.9 344.7c-.5 0-.8-.1-1.1-.4l.2-.2c.3.3.5.3.8.3.5 0 .7-.2.7-.6 0-.2 0-.3-.2-.4-.1-.1-.2-.1-.4-.2l-.4-.1c-.2 0-.4-.1-.6-.2-.2-.1-.2-.3-.2-.6 0-.5.4-.9 1-.9.4 0 .7.1.9.3l-.2.2c-.2-.2-.4-.3-.7-.3-.4 0-.7.2-.7.6 0 .2 0 .3.1.4.1.1.2.1.4.2l.4.1c.3 0 .4.1.6.2.2.1.3.3.3.6.1.7-.3 1-.9 1M235.7 344.7v-2.3l-.8 1.8h-.3l-.9-1.8v2.3h-.3v-3.1h.3l1 2.2 1-2.2h.3v3.1z"/></g></g><g><path class="st3" d="M251.3 342.6c-.8.8-1.5 1.4-2.3 1.7-.7.3-1.6.5-2.7.5-2 0-3.5-.6-4.7-1.9-1.3-1.4-1.9-3.3-1.9-5.8s.6-4.4 1.9-5.8c1.2-1.3 2.8-1.9 4.7-1.9 1.1 0 2 .2 2.7.5.7.3 1.5.9 2.3 1.7l-1.5 1.4c-1-1.1-2.2-1.7-3.4-1.7-1.5 0-2.7.6-3.5 1.7-.7.9-1 2.3-1 4 0 1.8.3 3.1 1 4 .8 1.1 2 1.7 3.5 1.7 1.3 0 2.4-.6 3.4-1.7l1.5 1.6zM266 337.8h-10.1c0 1.6.4 2.9 1.1 3.8.8.9 1.9 1.3 3.3 1.3 1.5 0 2.8-.6 3.9-1.7l1.5 1.3c-.8.8-1.6 1.4-2.3 1.7-.9.4-1.9.6-3.1.6-2.1 0-3.6-.6-4.8-1.9-1.2-1.3-1.8-3.2-1.8-5.8 0-2.4.5-4.3 1.6-5.7 1.1-1.4 2.6-2 4.5-2s3.4.7 4.5 2 1.6 3.1 1.6 5.3v1.1zm-2.2-1.7c-.1-1.1-.2-1.9-.5-2.5-.6-1.5-1.8-2.3-3.5-2.3s-2.9.8-3.5 2.3c-.2.6-.4 1.4-.5 2.5h8zM281.5 344.7h-2.2v-9.2c0-2.7-1.2-4-3.7-4-1.2 0-2.1.3-2.7 1-.7.7-1 1.7-1 3v9.2h-2.2v-15h2.2v1.6c1.1-1.2 2.5-1.8 4.2-1.8 1.6 0 2.9.5 3.8 1.4 1 1 1.6 2.4 1.6 4.2v9.6zM291.6 344.7H290c-1.2 0-2.2-.4-2.9-1.2-.7-.7-1-1.7-1-2.8v-9.2h-1.9v-1.7h1.9v-4.7h2.2v4.7h3.2v1.7h-3.2v9.1c0 1.5.7 2.2 2 2.2h1.2v1.9zM306.4 337.8h-10.1c0 1.6.4 2.9 1.1 3.8.8.9 1.9 1.3 3.3 1.3 1.5 0 2.8-.6 3.9-1.7l1.5 1.3c-.8.8-1.6 1.4-2.3 1.7-.9.4-1.9.6-3.1.6-2.1 0-3.6-.6-4.8-1.9-1.2-1.3-1.8-3.2-1.8-5.8 0-2.4.5-4.3 1.6-5.7 1.1-1.4 2.6-2 4.5-2s3.4.7 4.5 2 1.6 3.1 1.6 5.3v1.1zm-2.2-1.7c-.1-1.1-.2-1.9-.5-2.5-.6-1.5-1.8-2.3-3.5-2.3s-2.9.8-3.5 2.3c-.2.6-.4 1.4-.5 2.5h8zM320.1 330.9l-1.6 1.6c-.7-.7-1.6-1.1-2.6-1.1-1.1 0-1.9.4-2.6 1.1-.7.8-1 1.7-1 2.9v9.2h-2.2v-15h2.2v1.8c.9-1.3 2.3-2 4.2-2 1.4.1 2.6.6 3.6 1.5z"/></g><path class="st3" d="M11.4 344.7v-1.4c-1.2 1.2-2.3 1.6-4.3 1.6-2.1 0-3.3-.4-4.2-1.4-.7-.7-1.1-1.9-1.1-3 0-2.6 1.8-4.3 5.2-4.3h4.5v-1.4c0-2.2-1.1-3.3-3.8-3.3-1.9 0-2.9.5-3.8 1.7l-1.5-1.4c1.3-1.7 2.9-2.2 5.3-2.2 4 0 6 1.7 6 5v10.2h-2.3zm0-6.9H7.2c-2.3 0-3.4.9-3.4 2.7 0 1.7 1.1 2.6 3.4 2.6 1.3 0 2.4-.1 3.4-1 .5-.5.8-1.3.8-2.6v-1.7z"/></g></svg>